<svg xmlns="http://www.w3.org/2000/svg" width="216" height="102" viewBox="0 0 216 102">
  <g id="Group_43824" data-name="Group 43824" transform="translate(-693 -1805)">
    <rect id="Rectangle_6515" data-name="Rectangle 6515" width="216" height="102" rx="20" transform="translate(693 1805)" fill="rgba(255,255,255,0.1)" opacity="0"/>
    <g id="Group_43583" data-name="Group 43583" transform="translate(724.986 1835.98)">
      <path id="Path_47864" data-name="Path 47864" d="M41.775,28h3.05V22.075l1.525-1.8L51.1,28h3.6l-6.175-9.675,5.8-7.175H50.55l-4.425,5.925c-.4.575-.825,1.175-1.225,1.825h-.075V11.15h-3.05ZM55.8,28h3.075V20.7A2.763,2.763,0,0,1,59,19.775a2.566,2.566,0,0,1,2.4-1.725c1.7,0,2.35,1.35,2.35,3.1V28h3.075V20.825c0-3.9-2.175-5.275-4.25-5.275a4.336,4.336,0,0,0-2.125.55,4.046,4.046,0,0,0-1.525,1.375h-.05V10.25H55.8Zm23.257-7.3c0-2.675-1.125-5.15-5.025-5.15a8.766,8.766,0,0,0-4.4,1.075l.6,2a6.448,6.448,0,0,1,3.275-.9c2.15,0,2.475,1.325,2.475,2.125v.2c-4.5-.025-7.225,1.55-7.225,4.6a3.614,3.614,0,0,0,3.825,3.625,4.449,4.449,0,0,0,3.6-1.625h.075L76.48,28h2.775a16.421,16.421,0,0,1-.2-2.925Zm-3,3.025a2.076,2.076,0,0,1-.075.675,2.525,2.525,0,0,1-2.425,1.675,1.614,1.614,0,0,1-1.75-1.75c0-1.85,2.075-2.3,4.25-2.275Zm6.1-10.175v2.275H80.429v2.3h1.725V23.85a4.8,4.8,0,0,0,.975,3.425,3.52,3.52,0,0,0,2.65,1A6.747,6.747,0,0,0,88,27.95l-.05-2.325a4,4,0,0,1-1.2.125c-1.175,0-1.575-.75-1.575-2.25V18.125H88.1v-2.3H85.179V12.7ZM99.369,20.7c0-2.675-1.125-5.15-5.025-5.15a8.766,8.766,0,0,0-4.4,1.075l.6,2a6.448,6.448,0,0,1,3.275-.9c2.15,0,2.475,1.325,2.475,2.125v.2c-4.5-.025-7.225,1.55-7.225,4.6a3.614,3.614,0,0,0,3.825,3.625,4.449,4.449,0,0,0,3.6-1.625h.075L96.794,28h2.775a16.42,16.42,0,0,1-.2-2.925Zm-3,3.025a2.076,2.076,0,0,1-.075.675,2.525,2.525,0,0,1-2.425,1.675,1.614,1.614,0,0,1-1.75-1.75c0-1.85,2.075-2.3,4.25-2.275Zm6,4.225a25.427,25.427,0,0,0,3.375.2c2.75,0,4.65-.5,5.8-1.575a4.43,4.43,0,0,0,1.45-3.375,4.292,4.292,0,0,0-3.475-4.2v-.075a3.986,3.986,0,0,0,2.85-3.7,3.551,3.551,0,0,0-1.425-2.975c-1.025-.85-2.425-1.225-4.6-1.225a19.141,19.141,0,0,0-3.975.375Zm2.175-15.1a9.329,9.329,0,0,1,1.925-.15c2.2,0,3.675.8,3.675,2.75,0,1.625-1.35,2.85-3.625,2.85h-1.975Zm0,7.075h1.8c2.375,0,4.35.975,4.35,3.25,0,2.45-2.075,3.275-4.325,3.275a11.827,11.827,0,0,1-1.825-.1Zm16.022-4.275c-3.325,0-6,2.375-6,6.4,0,3.825,2.55,6.225,5.8,6.225,2.9,0,6.025-1.95,6.025-6.425C126.386,18.175,124.036,15.65,120.561,15.65Zm-.05,1.65c2.6,0,3.625,2.575,3.625,4.625,0,2.725-1.575,4.7-3.675,4.7-2.15,0-3.65-2-3.65-4.65C116.811,19.7,117.936,17.3,120.511,17.3Zm13.271-1.65c-3.325,0-6,2.375-6,6.4,0,3.825,2.55,6.225,5.8,6.225,2.9,0,6.025-1.95,6.025-6.425C139.607,18.175,137.257,15.65,133.782,15.65Zm-.05,1.65c2.6,0,3.625,2.575,3.625,4.625,0,2.725-1.575,4.7-3.675,4.7-2.15,0-3.65-2-3.65-4.65C130.032,19.7,131.157,17.3,133.732,17.3Zm10.321-7.05h-2.175V28h2.175V23.45l1.125-1.25,4.15,5.8h2.7L146.7,20.875l4.65-4.975h-2.625l-3.575,4.175c-.35.425-.75.95-1.05,1.375h-.05Z" fill="#fff"/>
      <path id="Path_47865" data-name="Path 47865" d="M9.076,7a.75.75,0,0,1,.642-.742l17.3-2.518a.75.75,0,0,1,.858.742V35.365a.75.75,0,0,1-.837.745l-17.3-2.03a.75.75,0,0,1-.663-.745Z" fill="rgba(0,0,0,0)" stroke="#fff" stroke-width="2.5"/>
      <path id="Path_47866" data-name="Path 47866" d="M0,5.217A2,2,0,0,1,1.722,3.237L22.5.32A2,2,0,0,1,24.783,2.3V37.739a2,2,0,0,1-2.244,1.985L1.756,37.172A2,2,0,0,1,0,35.187Z" fill="#fff"/>
    </g>
  </g>
</svg>
