<svg xmlns="http://www.w3.org/2000/svg" width="216" height="102" viewBox="0 0 216 102">
  <g id="Group_43824" data-name="Group 43824" transform="translate(-693 -1805)">
    <rect id="Rectangle_6515" data-name="Rectangle 6515" width="216" height="102" rx="20" transform="translate(693 1805)" fill="rgba(255,255,255,0.1)" opacity="0"/>
    <g id="Group_46797" data-name="Group 46797">
      <circle id="Ellipse_2621" data-name="Ellipse 2621" cx="31" cy="31" r="31" transform="translate(770 1825)" fill="#fff"/>
      <g id="Layer_1-2" transform="translate(771.578 1830.24)">
        <g id="VDbwuy" transform="translate(0 0)">
          <path id="Path_89213" data-name="Path 89213" d="M160.611,119.427a11.136,11.136,0,0,0-.791-.924c-.157-.151-.372-.1-.536.094a.432.432,0,0,1-.551.142.4.4,0,0,1-.248-.479c.03-.135.12-.335.218-.358a.687.687,0,0,1,.54.074.794.794,0,0,0,.588.194l8.461,0c.137,0,.275-.022.489-.04-.109-.149-.174-.234-.233-.322-.466-.687-.9-1.4-1.4-2.058a3.065,3.065,0,0,0-2.163-1.335,1.8,1.8,0,0,0-1.911.826,1.312,1.312,0,0,0,.106,1.5,1.411,1.411,0,0,0,1.572.377.643.643,0,0,0,.443-.569c-.139-.046-.308-.05-.382-.136a.337.337,0,0,1,.084-.492.3.3,0,0,1,.462.034.906.906,0,0,1,.053.907,1.2,1.2,0,0,1-.873.626,1.676,1.676,0,0,1-1.745-.885.455.455,0,0,0-.49-.322,1.065,1.065,0,0,0-.878.255c-.189.2-.421.094-.593-.09a.438.438,0,0,1,.02-.613.405.405,0,0,1,.608-.036c.293.322.645.2.979.2.064,0,.159-.11.189-.188a5.333,5.333,0,0,1,.151-.531c.144-.28.1-.409-.22-.5a1.843,1.843,0,0,1-1.236-1.162,2.028,2.028,0,0,1,1.259-2.578,1.248,1.248,0,0,1,1.64.972c.058.35-.183.753-.466.742a.5.5,0,0,1-.333-.16.3.3,0,0,1,.027-.3c.069-.064.213-.048.325-.064a.43.43,0,0,1,.089,0,.671.671,0,0,0-.322-.823,1.329,1.329,0,0,0-1.444.166,1.78,1.78,0,0,0-.12,2.526,1.3,1.3,0,0,0,1.606.3,2.666,2.666,0,0,1,2.778.216c.088.051.175.106.264.155.013.007.038-.007.076-.016a.433.433,0,0,0,0-.141,8.178,8.178,0,0,1-.425-2.761c0-.265-.159-.227-.33-.221a1.519,1.519,0,0,1-1.536-1.937,1.032,1.032,0,0,1,1.335-.706.5.5,0,0,1,.355.523c-.021.209-.14.354-.368.326-.256-.032-.219-.225-.184-.4a1.7,1.7,0,0,1,.053-.167.652.652,0,0,0-.845.309,1.087,1.087,0,0,0,.061,1.2,1.217,1.217,0,0,0,1.085.6.472.472,0,0,0,.482-.429,5.876,5.876,0,0,1,3.652-4.415,2.339,2.339,0,0,1,.991-.142.656.656,0,0,1,.694.643.626.626,0,0,1-.254.432.445.445,0,0,1-.427-.1c-.084-.122-.048-.329-.052-.5,0-.043.042-.088.1-.2a1.293,1.293,0,0,0-.431-.025,6.3,6.3,0,0,0-1.111.434,5.618,5.618,0,0,0-2.97,4.132,6.916,6.916,0,0,0,.541,3.768,9.075,9.075,0,0,0,3.735,4.39.673.673,0,0,1,.154.1,1.709,1.709,0,0,1,.144.214.9.9,0,0,1-.227.116,1.871,1.871,0,0,1-.338.007q-6.345,0-12.691,0c-.159,0-.45.062-.455.117-.024.246-.178.513.059.755a.457.457,0,0,1,0,.684.536.536,0,0,1-.679-.017.492.492,0,0,1,.076-.713c.28-.193.208-.482.233-.726a19.449,19.449,0,0,1,8.32-14.076,18.269,18.269,0,0,1,7.471-3.08,24.741,24.741,0,0,1,3.55-.349,18.126,18.126,0,0,1,4.575.566,19.353,19.353,0,0,1,9.9,5.95,19.525,19.525,0,0,1,3.155,4.808,18.815,18.815,0,0,1,1.528,5.094c.077.507.12,1.02.191,1.528a.808.808,0,0,0,.136.327.5.5,0,0,1-.044.694.5.5,0,0,1-.669-.051.479.479,0,0,1,.1-.705c.262-.185.172-.434.109-.637-.028-.09-.262-.164-.4-.164-4.251-.009-8.5-.006-12.753-.012a2.107,2.107,0,0,1-.5-.125,2.13,2.13,0,0,1,.349-.347,8.858,8.858,0,0,0,3.064-3.117,7.682,7.682,0,0,0,1.13-5.08,5.309,5.309,0,0,0-1.209-2.631,6.491,6.491,0,0,0-2.253-1.69,1.387,1.387,0,0,0-1.012-.141c.048.1.108.175.107.244,0,.151.013.347-.072.44a.508.508,0,0,1-.433.121.484.484,0,0,1-.245-.341c-.071-.407.216-.7.7-.755a2.094,2.094,0,0,1,1.221.251,6.139,6.139,0,0,1,3.3,3.834c.043.148.065.3.1.453a.488.488,0,0,0,.568.469,1.273,1.273,0,0,0,1.121-1.68.674.674,0,0,0-.894-.426.4.4,0,0,1,.037.138.838.838,0,0,1-.077.381.335.335,0,0,1-.32-.026.542.542,0,0,1-.131-.4.686.686,0,0,1,.844-.43,1.226,1.226,0,0,1,.86,1.517,1.579,1.579,0,0,1-1.638,1.173c-.185-.027-.282.027-.279.216a8.351,8.351,0,0,1-.42,2.824c-.008.024.009.056.023.133.112-.064.2-.115.294-.169a2.778,2.778,0,0,1,2.527-.364.7.7,0,0,1,.2.086,1.082,1.082,0,0,0,1.3.046,1.614,1.614,0,0,0,.849-1.19,1.71,1.71,0,0,0-1.176-1.919.971.971,0,0,0-1.221.655,1.269,1.269,0,0,0,0,.274c.065.011.089.023.1.017.187-.081.364-.069.429.141.027.087-.051.294-.106.3a.74.74,0,0,1-.5-.04.816.816,0,0,1-.1-1.021,1.45,1.45,0,0,1,2.155-.268,1.982,1.982,0,0,1-.716,3.455c-.24.062-.267.177-.157.379.058.107.077.234.125.347.067.157.132.435.218.443.31.028.653.154.936-.121a.424.424,0,0,1,.653-.049.44.44,0,0,1,.068.632.428.428,0,0,1-.651.07c-.307-.342-.684-.216-1.037-.2-.1,0-.214.168-.271.284a1.69,1.69,0,0,1-1.924.855,1.094,1.094,0,0,1-.808-1.016.822.822,0,0,1,.164-.476.385.385,0,0,1,.369-.069.729.729,0,0,1,.183.435c.006.049-.181.122-.282.181a.5.5,0,0,1-.1.029.548.548,0,0,0,.356.549,1.4,1.4,0,0,0,1.569-.249,1.347,1.347,0,0,0,.188-1.575,1.738,1.738,0,0,0-1.717-.868,3.348,3.348,0,0,0-2.242,1.166.357.357,0,0,0-.075.1,10,10,0,0,1-1.6,2.336c-.019.02-.02.056-.044.133a2.145,2.145,0,0,0,.317.048q4.354,0,8.708-.006c.152,0,.3-.148.456-.185a1.129,1.129,0,0,1,.6-.049c.107.041.2.319.171.466a.561.561,0,0,1-.343.361.629.629,0,0,1-.455-.165c-.259-.209-.435-.225-.654.023q-.265.3-.508.621a1.18,1.18,0,0,0-.115.262,1.139,1.139,0,0,0,.285.079c.494.008.988,0,1.482,0,.319,0,.638,0,.957,0,.232,0,.331-.071.3-.332a17.813,17.813,0,0,0-.763-3.362,19.216,19.216,0,0,0-8.022-10.238,18.092,18.092,0,0,0-5.744-2.418,26.757,26.757,0,0,0-3.381-.476,17.3,17.3,0,0,0-6.486.742,19.219,19.219,0,0,0-11.332,9.144A18.377,18.377,0,0,0,157.505,119c-.085.614-.012.576.514.576.721,0,1.441,0,2.161,0a3.343,3.343,0,0,0,.382-.043l.05-.106Zm26.2.009a1.305,1.305,0,0,0,1.721-1.01c-.306.014-.664-.075-.865.063a5.3,5.3,0,0,0-.855.947Zm4.532-.939a1.359,1.359,0,0,0-1.717,1.039c.305-.018.665.066.866-.075A5.357,5.357,0,0,0,191.348,118.5Zm-29.712.013c.2.25.375.469.548.692a.887.887,0,0,0,1.129.252,1.29,1.29,0,0,0-1.677-.943Zm24.2.029-.061-.138a2.532,2.532,0,0,0-.9.14,2.688,2.688,0,0,0-.645.735c-.036.046,0,.22.009.22.282,0,.635.08.83-.058A4.56,4.56,0,0,0,185.839,118.539Zm-21.452-.025c.206.266.4.522.6.774a.87.87,0,0,0,1.067.135,1.3,1.3,0,0,0-1.669-.91Zm-4.129-.013c.24.3.432.569.663.806a.774.774,0,0,0,.438.211,2.534,2.534,0,0,0,.587-.067c-.1-.169-.2-.34-.307-.508A1.077,1.077,0,0,0,160.258,118.5Zm8.554.948c-.337-.816-1-1.2-1.626-.95A1.257,1.257,0,0,0,168.812,119.449Zm-.343-.906a4.243,4.243,0,0,0,.876.931c.26.149.674.029,1.02.029l.02-.1c-.073-.064-.143-.132-.219-.191a6.755,6.755,0,0,1-.673-.532A.877.877,0,0,0,168.469,118.544Zm21.478.009-.064-.134c-.287.022-.631-.047-.849.087a3.292,3.292,0,0,0-.716.792c-.028.035.033.206.052.206.263,0,.6.078.773-.051a5.382,5.382,0,0,0,.8-.9Zm-4.494.882c.624.2.923.121,1.237-.266.11-.135.233-.26.34-.4a3.564,3.564,0,0,0,.2-.35c-.366.017-.716-.07-.912.065A5.589,5.589,0,0,0,185.453,119.435Zm-22.441-.918c.221.272.427.529.636.784a.862.862,0,0,0,1.042.127,1.3,1.3,0,0,0-1.679-.91Zm4.41.92a1.267,1.267,0,0,0-1.663-.909c.2.241.389.476.578.713A.855.855,0,0,0,167.422,119.437Zm25.226-.979c-.477-.059-.918-.113-1.207.371a4.182,4.182,0,0,1-.317.374,1.938,1.938,0,0,0-.143.251,1.3,1.3,0,0,0,1.666-1Zm-10.1.966a1.431,1.431,0,0,0,1.879-.96.93.93,0,0,0-.9.176,7.662,7.662,0,0,1-.724.566C182.718,119.269,182.642,119.343,182.551,119.423Z" transform="translate(-147.019 -96.075)"/>
          <path id="Path_89214" data-name="Path 89214" d="M87.014,0a25.851,25.851,0,0,1,17.728,7.106,26.211,26.211,0,0,1,3.969,4.825,25.608,25.608,0,0,1,3.043,6.756,24.148,24.148,0,0,1,.863,4.535,1.624,1.624,0,0,1,.043.426c-.022.112-.136.208-.209.31-.072-.1-.192-.184-.208-.288-.138-.924-.218-1.857-.389-2.774a24.13,24.13,0,0,0-1.59-5.114,25.473,25.473,0,0,0-3.979-6.4,25.047,25.047,0,0,0-4.254-3.971A25.371,25.371,0,0,0,95.79,2.021,21.586,21.586,0,0,0,90.354.685,34.027,34.027,0,0,0,86.514.46a29.522,29.522,0,0,0-3.643.35,23,23,0,0,0-7.1,2.3A25.55,25.55,0,0,0,64.011,15.242a24.082,24.082,0,0,0-1.864,5.864c-.133.747-.2,1.506-.3,2.258-.025.18.006.465-.254.457-.308-.009-.193-.307-.169-.465.174-1.146.331-2.3.57-3.432a24.1,24.1,0,0,1,2.975-7.411,24.857,24.857,0,0,1,3.041-4.072,26.41,26.41,0,0,1,4.173-3.694,25.338,25.338,0,0,1,7.247-3.574A24.253,24.253,0,0,1,84.217.181c.93-.091,1.866-.122,2.8-.18Z" transform="translate(-57.588 0)"/>
          <path id="Path_89215" data-name="Path 89215" d="M46.441,606.946a.543.543,0,0,1-.05-.111c-.019-.13-.082-.287-.031-.383a.348.348,0,0,1,.339-.064c.1.076.218.27.186.369a.817.817,0,0,1-.344.458.793.793,0,0,1-.874-.071.947.947,0,0,1-.229-1.3,3.405,3.405,0,0,0,.5-1.658c.051-.375.021-.76.038-1.14.009-.206-.093-.272-.279-.272-.422,0-.844.008-1.265-.007a.893.893,0,0,1-.3-.132c.1-.041.2-.09.311-.121a.682.682,0,0,1,.185,0q26.194,0,52.389.006c.169,0,.4-.129.509.133a3.01,3.01,0,0,1-.5.108c-.359.017-.72.01-1.08,0-.182,0-.274.064-.255.252.072.735.133,1.471.227,2.2a1.284,1.284,0,0,0,.24.49,1.02,1.02,0,0,1-.01,1.262.819.819,0,0,1-1.3-.007.621.621,0,0,1-.054-.434c.021-.083.174-.165.28-.186a.3.3,0,0,1,.255.113c.038.063-.006.183-.028.276a1.384,1.384,0,0,1-.088.209.9.9,0,0,0,.3.107.666.666,0,0,0,.553-.814,1.145,1.145,0,0,0-.593-.792,10.768,10.768,0,0,0-1.605-.7c-1.853-.584-3.727-1.1-5.57-1.709a4.71,4.71,0,0,0-1.527-.207q-16.192,0-32.384-.012a3.532,3.532,0,0,0-1.083.26c-2.11.656-4.224,1.3-6.322,1.994a3.39,3.39,0,0,0-1.159.726.749.749,0,0,0,.023,1.165.419.419,0,0,0,.6-.011ZM95.53,605.1a.455.455,0,0,0,.036-.117c-.049-.651-.093-1.3-.163-1.953-.01-.091-.153-.169-.235-.253-.071.091-.208.186-.2.272.035.559.1,1.118.155,1.676.023.232.184.32.409.375Zm-49.448-.026c.272-.019.425-.108.45-.34.059-.557.115-1.116.164-1.675.013-.149-.018-.323-.218-.278-.082.018-.177.172-.188.273-.058.487-.088.977-.132,1.466-.016.177-.047.353-.075.555Zm.742-.363c.349-.011.408-.039.438-.3.054-.446.085-.894.12-1.342.012-.156-.022-.324-.216-.28a.4.4,0,0,0-.233.277c-.038.272-.014.552-.03.828s-.052.54-.08.816Zm47.872.054.125-.074c-.037-.588-.067-1.176-.122-1.762-.006-.06-.169-.157-.245-.146a.288.288,0,0,0-.172.224c.028.479.065.958.138,1.432.019.12.18.217.276.325Zm-47.135-.3c.22.036.369-.027.393-.243.046-.415.084-.831.1-1.248a.274.274,0,0,0-.193-.191.287.287,0,0,0-.2.192C47.612,603.465,47.592,603.953,47.561,604.47Zm46.541.007c-.033-.518-.059-1.015-.107-1.511-.006-.067-.142-.18-.2-.169-.08.018-.2.129-.2.2.017.408.064.814.1,1.221.022.224.16.29.4.263Zm-45.834-.25c.232.04.38-.011.4-.216.038-.334.062-.671.068-1.007,0-.071-.109-.21-.149-.2-.089.014-.231.094-.238.16-.045.413-.059.829-.084,1.267Zm45.016.088.118-.08c-.028-.417-.046-.835-.094-1.249-.009-.074-.143-.133-.219-.2-.06.078-.174.158-.171.233a6.018,6.018,0,0,0,.106.977c.025.119.17.214.26.319Zm-43.82-1.174c-.031-.148.049-.373-.233-.373-.252,0-.216.194-.23.354a5.277,5.277,0,0,0-.047.581.946.946,0,0,0,.115.3c.106-.08.268-.138.306-.243a2.873,2.873,0,0,0,.088-.617Zm43.233.733c-.022-.341-.025-.608-.066-.869a.356.356,0,0,0-.207-.21c-.046-.019-.2.081-.2.122a7.032,7.032,0,0,0,.1.966c.012.063.177.117.277.132.033.005.085-.13.092-.141Zm-.674-.242a4.656,4.656,0,0,0-.067-.649.294.294,0,0,0-.211-.186c-.077,0-.214.113-.218.182a1.835,1.835,0,0,0,.064.634c.027.086.193.147.308.175C91.932,603.8,92,603.656,92.023,603.631Zm-41.862-.494.054-.05c-.083-.1-.151-.268-.251-.291-.222-.051-.254.144-.268.315a2.312,2.312,0,0,0-.014.428.917.917,0,0,0,.115.261c.1-.07.24-.119.287-.214a1.6,1.6,0,0,0,.078-.449Zm41.2.139a3.209,3.209,0,0,0-.232-.472c-.023-.033-.233,0-.238.031a.968.968,0,0,0-.019.463c.037.117.179.2.275.3l.214-.321Zm-41.014.06c.036.059.1.264.17.263.283,0,.305-.244.321-.461.011-.153.028-.321-.212-.313-.314.009-.214.258-.278.511Zm38.515-.553c-.007.043-.015.086-.023.13l1,.289.089-.111c-.075-.1-.139-.281-.226-.293A6.168,6.168,0,0,0,88.858,602.783ZM52.83,602.9l-.028-.13c-.284,0-.569-.012-.852.01-.061,0-.133.13-.156.213-.012.041.09.165.119.158C52.22,603.082,52.524,602.991,52.83,602.9Zm37.76.466c-.089-.215.118-.5-.222-.588-.054-.014-.207.11-.208.172-.006.233.048.454.43.416ZM51.1,603.364c.352.029.415-.173.4-.4,0-.064-.159-.183-.217-.168-.336.089-.137.354-.184.569Z" transform="translate(-41.405 -565.279)"/>
          <path id="Path_89216" data-name="Path 89216" d="M50.4,331.312a.656.656,0,0,0-.855-.15.876.876,0,0,0-.418.921,1.418,1.418,0,0,0,.762,1,11.834,11.834,0,0,0,1.834.8c2.087.663,4.188,1.283,6.284,1.918.271.082.547.147.821.22,0,.033.009.067.014.1a1.041,1.041,0,0,1-.258.13,1.939,1.939,0,0,1-.369.01H.516a.231.231,0,0,1-.062,0c-.152-.043-.3-.088-.455-.132a2.094,2.094,0,0,1,.4-.228c1.849-.563,3.7-1.108,5.551-1.675a23.3,23.3,0,0,0,2.27-.788,3.735,3.735,0,0,0,1.135-.774.912.912,0,0,0-.26-1.547.634.634,0,0,0-.715.18.768.768,0,0,1,.139.124c.062.1.16.2.151.3a.311.311,0,0,1-.232.2.452.452,0,0,1-.341-.135.462.462,0,0,1,.106-.637.951.951,0,0,1,1.592.45,1.143,1.143,0,0,1-.149,1.007,2.18,2.18,0,0,0-.418,1.078c-.092.65-.156,1.3-.2,1.959-.029.411,0,.42.4.421H49.1c.113,0,.227-.008.34,0,.227.018.315-.084.315-.306a10.17,10.17,0,0,0-.374-2.71.949.949,0,0,0-.182-.281,1.241,1.241,0,0,1,.143-1.7.935.935,0,0,1,1.239.083.448.448,0,0,1,.122.583.48.48,0,0,1-.343.183.327.327,0,0,1-.253-.206c-.006-.1.113-.2.183-.3a.6.6,0,0,1,.111-.09Zm-.617,2.01c0,.112-.006.191,0,.269.062.7.136,1.409.187,2.115.017.232.067.357.337.356.289,0,.329-.162.307-.377-.062-.613-.133-1.224-.2-1.835-.041-.356-.312-.435-.629-.527Zm-40.729-.072c-.225.18-.53.3-.563.471-.133.692-.187,1.4-.258,2.1-.022.22.146.23.313.233s.3-.014.317-.232c.056-.816.12-1.632.191-2.575Zm41.625.525a.576.576,0,0,0-.035.156c.049.613.111,1.224.151,1.837.017.253.148.3.365.29s.28-.135.263-.323c-.045-.479-.1-.958-.139-1.438-.025-.364-.245-.485-.6-.522Zm-42.506-.006c-.239.064-.52.047-.566.344-.084.546-.133,1.1-.19,1.647-.02.2.07.292.286.3.241.01.33-.09.348-.315.044-.592.1-1.183.146-1.774a1.214,1.214,0,0,0-.024-.2Zm-.836.343-.059-.092c-.162.1-.438.17-.465.3a11.24,11.24,0,0,0-.183,1.551c0,.056.179.172.277.175s.282-.094.289-.162c.065-.587.1-1.178.141-1.768Zm44.174,0c.055.606.1,1.211.179,1.811.007.057.232.116.354.113a.28.28,0,0,0,.178-.21c-.019-.418-.057-.834-.109-1.249C52.068,334.193,51.968,334.121,51.514,334.115Zm-44.963.209c-.288.049-.555.032-.608.312-.072.379-.094.768-.134,1.154-.02.2.086.266.277.267s.315-.037.325-.261c.015-.325.044-.651.072-.976.013-.148.04-.295.067-.5Zm46.515,1.3a5.729,5.729,0,0,0-.164-.995c-.043-.129-.293-.19-.448-.281a1.145,1.145,0,0,0-.082.336c.026.388.065.776.124,1.16a.3.3,0,0,0,.2.2c.322.053.356,0,.375-.416Zm-47.379-1.02c-.29.063-.567.017-.614.338a5.806,5.806,0,0,0-.065.853.305.305,0,0,0,.168.24c.14.022.354.093.384-.162C5.607,335.476,5.641,335.073,5.686,334.609Zm47.484.029c.046.448.073.873.149,1.288.012.062.249.106.385.112.049,0,.148-.13.148-.2a4.841,4.841,0,0,0-.053-.732c-.061-.4-.127-.449-.628-.468Zm.847.277c.029.334.052.668.092,1,.006.049.085.113.141.129.346.1.482-.027.437-.387-.012-.091-.031-.182-.04-.274-.038-.4-.147-.488-.629-.467Zm-49.175.014c-.445-.028-.566.057-.624.427-.022.141-.012.287-.031.428s-.008.274.186.267c.162-.006.364.064.381-.219s.057-.587.088-.9Zm49.992.216a6,6,0,0,0,.089.766c.016.067.186.128.288.133s.241-.053.268-.122C55.642,335.51,55.357,335.14,54.835,335.145Zm-51.169.95c.09-.061.246-.11.258-.183a4.539,4.539,0,0,0,.024-.745.446.446,0,0,0-.167-.022c-.378.033-.378.311-.41.6-.026.233.031.333.3.352Zm-.955-.043c.4,0,.484-.1.463-.5a.228.228,0,0,0-.15-.162.416.416,0,0,0-.468.44c.009.1.127.186.155.224Zm53-.645c-.028.587,0,.638.282.647.174.006.333,0,.318-.247C56.291,335.512,56.114,335.383,55.708,335.408Zm1.943.643c.007-.04.014-.081.022-.121-.3-.09-.606-.189-.913-.262-.068-.016-.158.059-.238.093.063.1.119.269.19.277C57.022,336.069,57.337,336.051,57.651,336.051Zm-56.46-.121.027.12c.314,0,.63.013.943-.011.063,0,.135-.143.163-.232.012-.037-.094-.161-.125-.154C1.86,335.735,1.526,335.835,1.191,335.93Z" transform="translate(0 -310.431)"/>
          <path id="Path_89217" data-name="Path 89217" d="M156.218,661.181a27.434,27.434,0,0,1-8.445-1.506,25.63,25.63,0,0,1-8.827-5.241,24.429,24.429,0,0,1-3.729-4.224c-.065-.094-.109-.311-.057-.357.166-.153.3,0,.4.132.332.432.649.876.991,1.3a25.027,25.027,0,0,0,5.2,4.843,25.481,25.481,0,0,0,3.93,2.253,24.78,24.78,0,0,0,7.017,2.065,25.356,25.356,0,0,0,4.892.2,24.985,24.985,0,0,0,5.611-.94,25.475,25.475,0,0,0,6.72-3.047,24.5,24.5,0,0,0,6.045-5.452c.3-.38.579-.773.869-1.16.037-.049.069-.122.119-.138a1.852,1.852,0,0,1,.322-.05c0,.1.047.229,0,.3q-.342.513-.724,1a25.842,25.842,0,0,1-8.693,7.166,24.716,24.716,0,0,1-8.144,2.536c-1.159.147-2.328.217-3.493.322Z" transform="translate(-126.791 -609.66)"/>
          <path id="Path_89218" data-name="Path 89218" d="M295.123,631.9c-.067.009-.123.033-.166.018-.133-.049-.314-.081-.372-.181a.393.393,0,0,1,.1-.367.474.474,0,0,1,.409-.061.622.622,0,0,1,.283.34,1.163,1.163,0,0,1-.69,1.408,2.929,2.929,0,0,1-1.372.047,16.784,16.784,0,0,1-4.553-1.031,11.288,11.288,0,0,1-3.821-2.38c-.147-.143-.309-.273-.443-.427-.066-.076-.142-.243-.109-.283.065-.078.2-.1.311-.139a.388.388,0,0,1,.123,0h10.334a.469.469,0,0,1,.153,0c.108.039.211.094.316.142a2.178,2.178,0,0,1-.177.269c-.5.56-1,1.111-1.495,1.678a.678.678,0,0,0-.144.388c-.018.42,0,.843-.01,1.264-.007.234.1.306.314.311a.9.9,0,0,0,1.007-1Zm-2.594-.947h0c0,.473,0,.945,0,1.419,0,.377.065.439.448.467.082.006.165,0,.246.014.2.028.272-.052.273-.256.008-.934.033-1.869.044-2.8.007-.656,0-.647-.664-.64-.256,0-.351.107-.348.35,0,.483,0,.967,0,1.449Zm-1.507-.122c0-.329,0-.656,0-.985-.009-.758.108-.674-.691-.693-.3-.007-.4.1-.4.393.01.636,0,1.272,0,1.908.006.886-.1.706.793.965.216.062.3-.008.3-.234-.009-.451,0-.9,0-1.354Zm1.275.309h-.025c0-.483.023-.967-.006-1.449-.034-.549-.055-.535-.608-.542-.261,0-.332.091-.329.34.012.823,0,1.646,0,2.469,0,.629,0,.617.615.726.283.05.35-.07.349-.31,0-.411,0-.823,0-1.235Zm-2.595-.522h0c0-.216,0-.432,0-.648-.006-.973.07-.792-.826-.818-.238-.007-.332.073-.326.319.013.5,0,1.008,0,1.512,0,.8.046.847.832,1.04.221.054.313-.015.313-.232q0-.586,0-1.173Zm-1.482.949c.012-.182.02-.28.023-.379.016-.451.025-.9.048-1.354.033-.679.037-.679-.654-.677-.051,0-.1,0-.154,0-.244-.02-.331.107-.329.333,0,.432,0,.864,0,1.3,0,.094.03.236.1.274.295.175.606.322.966.507Zm-2.255-1.835-.054.017a1.8,1.8,0,0,0,.191.549,2.23,2.23,0,0,0,.512.39c.211.148.309.055.305-.169q-.01-.585-.051-1.169a.249.249,0,0,0-.131-.178c-.486-.184-.772.017-.772.53Zm9.043-.477-.048-.093c-.333,0-.666-.005-1,.006a.2.2,0,0,0-.141.127c-.011.382-.006.764-.006,1.146l.1.036Zm-9.425.672.143-.069c-.033-.222.01-.537-.119-.64-.148-.119-.447-.049-.68-.062l-.046.116.7.656Z" transform="translate(-266.82 -590.001)"/>
          <path id="Path_89219" data-name="Path 89219" d="M488.694,632.743a.9.9,0,0,0,1.142.968.315.315,0,0,0,.182-.232c.017-.462.018-.926,0-1.388a.641.641,0,0,0-.172-.349c-.471-.543-.955-1.074-1.429-1.614a2.383,2.383,0,0,1-.2-.321,1.66,1.66,0,0,1,.392-.1q5.214-.008,10.428,0a1.543,1.543,0,0,1,.39.105,1.427,1.427,0,0,1-.191.358,11.894,11.894,0,0,1-4.322,2.779,16.972,16.972,0,0,1-5.238,1.028,1.127,1.127,0,0,1-1.267-1.04,1.313,1.313,0,0,1,.168-.688.309.309,0,0,1,.473-.129.578.578,0,0,1,.183.434c-.024.227-.238.206-.419.182a.641.641,0,0,0-.113.006Zm2.8-1.007h0v1.046c0,.041,0,.082,0,.123-.01.664,0,.664.644.532a.39.39,0,0,0,.374-.454c-.014-.8,0-1.6,0-2.4,0-.629,0-.617-.644-.623-.271,0-.37.1-.367.359.006.472,0,.944,0,1.415Zm-1.2.049h0c0,.514,0,1.027,0,1.541,0,.1.041.275.069.276a2.839,2.839,0,0,0,.75-.042c.073-.017.141-.232.142-.357.012-.873.007-1.746.007-2.619,0-.632,0-.621-.646-.622-.261,0-.338.1-.331.345C490.3,630.8,490.294,631.292,490.294,631.785Zm2.471-.179v.923c0,.819,0,.812.786.567a.376.376,0,0,0,.309-.419c-.009-.647,0-1.293,0-1.939-.006-.889.1-.757-.8-.775-.238,0-.3.106-.295.319.009.441,0,.883,0,1.323Zm1.317-.182h0v.616c0,.964.035.991.913.573a.472.472,0,0,0,.226-.336c.025-.5.011-1.006.011-1.509,0-.823,0-.815-.817-.806-.238,0-.338.087-.333.322.006.38,0,.76,0,1.14Zm1.461.857.094.064a4.737,4.737,0,0,0,.917-.5c.119-.1.075-.4.091-.61.012-.164,0-.328,0-.493-.013-.894.123-.755-.794-.776-.251-.005-.319.1-.312.33.012.442,0,.884,0,1.325v.663Zm1.38-.692c.67-.238.9-.519.9-1.04,0-.584-.157-.709-.737-.573-.059.014-.153.076-.153.117-.01.485-.007.971-.007,1.5Zm-7.045-.309.1-.038c0-.365,0-.73-.005-1.095,0-.056-.067-.155-.106-.156-.347-.012-.695-.007-1.042-.007l-.033.093Zm8.284-.5.792-.745C498.163,629.84,497.969,630.017,498.162,630.781Z" transform="translate(-458.06 -590.814)"/>
          <path id="Path_89220" data-name="Path 89220" d="M230.237,610.05a1.379,1.379,0,0,1,.364.224,20,20,0,0,0,3.645,3.4,19.311,19.311,0,0,0,6.058,2.908,19.507,19.507,0,0,0,13.4-1.233,19.068,19.068,0,0,0,6.449-5.072c.108-.13.208-.26.461-.115a19,19,0,0,1-13.014,7.216c-7.077.746-12.856-1.808-17.438-7.164l.077-.162Z" transform="translate(-215.946 -572.376)"/>
          <path id="Path_89221" data-name="Path 89221" d="M428.567,254.024v1.091c0,.154,0,.309.006.463.009.183-.015.4.259.4s.248-.232.255-.409c.014-.37.01-.74.017-1.111,0-.114.018-.227.027-.341l.125,0c0,.332,0,.664,0,1a2.928,2.928,0,0,0,.044.613c.023.1.154.171.236.255.08-.1.225-.191.23-.292.022-.451.012-.9,0-1.357-.01-.39-.039-.779-.012-1.174.046.372.092.744.137,1.117.071.6.137,1.2.211,1.8a.955.955,0,0,1-.416.932,3.625,3.625,0,0,0-.577.594.45.45,0,0,0,.012.621.486.486,0,0,0,.611.15,3.174,3.174,0,0,0,2.083-2.9,9.054,9.054,0,0,1,0-1.018.658.658,0,0,0-.511-.765.451.451,0,0,1-.211-.138,2.991,2.991,0,0,1,.62.184.49.49,0,0,1,.227.356c0,.75,0,1.5-.065,2.249a2.431,2.431,0,0,1-.774,1.41,5.256,5.256,0,0,1-2.148,1.291.388.388,0,0,1-.238,0,4.972,4.972,0,0,1-2.451-1.636,2.764,2.764,0,0,1-.563-1.7c0-.484,0-.967,0-1.451,0-.443.03-.48.452-.6l.332-.093c-.006.029-.007.056-.014.057a.821.821,0,0,0-.625,1.031,4.29,4.29,0,0,1,0,.8,3.133,3.133,0,0,0,2.062,2.908.492.492,0,0,0,.634-.159.462.462,0,0,0,0-.624,2.988,2.988,0,0,0-.515-.526,1.037,1.037,0,0,1-.469-1.031c.125-.963.229-1.929.325-2.753v2.2c0,.062,0,.124,0,.185,0,.164.024.347.233.311a.387.387,0,0,0,.24-.275c.045-.459.052-.923.074-1.385,0-.1.011-.192.017-.288h.12Z" transform="translate(-399.411 -237.526)"/>
          <path id="Path_89222" data-name="Path 89222" d="M80.247,483.155c.339-.043.369-.28.368-.552,0-1.019-.008-2.038,0-3.057,0-.3-.064-.507-.458-.537a19.913,19.913,0,0,1,2.467.02,1.931,1.931,0,0,1,1.708,2.02,2.054,2.054,0,0,1-1.809,2.091A21.889,21.889,0,0,1,80.247,483.155Zm1.106-2.137c0,.5,0,1.006,0,1.509a.437.437,0,0,0,.36.5,1.346,1.346,0,0,0,1.562-.753,2.71,2.71,0,0,0-.125-2.542,1.262,1.262,0,0,0-1.391-.625.411.411,0,0,0-.409.47C81.357,480.054,81.353,480.536,81.353,481.018Z" transform="translate(-75.21 -449.398)"/>
          <path id="Path_89223" data-name="Path 89223" d="M732.072,480.5c.183.061.311.094.432.146a1.073,1.073,0,0,1,.725.884,1.023,1.023,0,0,1-.5,1.053,1.957,1.957,0,0,1-.829.294,15.515,15.515,0,0,1-1.958-.026c.368-.043.411-.279.409-.562q-.007-1.513,0-3.025c0-.266-.025-.5-.356-.582.66,0,1.321-.032,1.978.01a.832.832,0,0,1,.838.653.973.973,0,0,1-.5,1.014c-.06.039-.122.073-.238.141Zm-.982,1.117h0a6.087,6.087,0,0,0,.009.736.506.506,0,0,0,.193.345.863.863,0,0,0,1.031-.314,1.287,1.287,0,0,0-.038-1.265.965.965,0,0,0-.984-.428c-.156,0-.22.06-.215.219.009.235,0,.471,0,.706Zm.012-1.141c.459.087.714-.016.878-.338.19-.374.164-.995-.1-1.177a1.079,1.079,0,0,0-.566-.138c-.069,0-.2.164-.2.257-.021.467-.01.935-.01,1.4Z" transform="translate(-684.862 -449.106)"/>
          <path id="Path_89224" data-name="Path 89224" d="M345.019,477.54a2.078,2.078,0,0,1,2.106,2.145,2.3,2.3,0,0,1-2.378,2.209,2.1,2.1,0,0,1-2.117-2.181A2.234,2.234,0,0,1,345.019,477.54Zm-1.564,1.808a2.648,2.648,0,0,0,.714,2.064,1.153,1.153,0,0,0,1.839-.291,2.891,2.891,0,0,0-.119-2.794,1.327,1.327,0,0,0-1.393-.6,1.168,1.168,0,0,0-.956,1.007,5.369,5.369,0,0,0-.086.61Z" transform="translate(-321.47 -448.049)"/>
          <path id="Path_89225" data-name="Path 89225" d="M637.4,477.531a2.078,2.078,0,0,1,2.134,2.116,2.289,2.289,0,0,1-2.347,2.238,2.1,2.1,0,0,1-2.14-2.182,2.22,2.22,0,0,1,2.353-2.173Zm-1.574,1.921a2.821,2.821,0,0,0,.685,1.885,1.169,1.169,0,0,0,1.968-.329,2.834,2.834,0,0,0-.083-2.531,1.577,1.577,0,0,0-.39-.471,1.222,1.222,0,0,0-1.989.515A6.519,6.519,0,0,0,635.829,479.451Z" transform="translate(-595.832 -448.04)"/>
          <path id="Path_89226" data-name="Path 89226" d="M477.671,478.7a6.348,6.348,0,0,0-.656-.758,1.433,1.433,0,0,0-2.2.39,2.586,2.586,0,0,0,.2,2.736,1.73,1.73,0,0,0,1.558.642.48.48,0,0,0,.493-.456,4.735,4.735,0,0,0,.009-.738.341.341,0,0,0-.341-.334.6.6,0,0,1-.282-.08h1.488a1.883,1.883,0,0,0-.12.417c-.015.3.015.6,0,.893,0,.082-.094.225-.153.23a11.283,11.283,0,0,1-2.079.1,2.042,2.042,0,0,1-1.873-1.969,2.142,2.142,0,0,1,1.624-2.17,3.7,3.7,0,0,1,1.98-.024c.182.043.287.121.291.327C477.612,478.172,477.647,478.431,477.671,478.7Z" transform="translate(-444.454 -447.976)"/>
          <path id="Path_89227" data-name="Path 89227" d="M14.1,481.858c-.016.291-.023.584-.057.873-.006.051-.127.127-.2.127-.915.009-1.83.006-2.773-.022.407-.041.386-.325.386-.6,0-.988,0-1.975,0-2.962,0-.293-.033-.54-.391-.618h2.1c.791,0,.85.076.679,1.009a1.061,1.061,0,0,0-1.231-.824c-.322.013-.417.111-.421.437,0,.419,0,.839,0,1.252a1.187,1.187,0,0,0,1.42-.385v1.126c-.277-.476-.711-.616-1.415-.455,0,.516,0,1.039,0,1.561,0,.212.136.3.344.312a1.424,1.424,0,0,0,1.548-.833Z" transform="translate(-10.386 -449.1)"/>
          <path id="Path_89228" data-name="Path 89228" d="M169.2,478.87h1.516c-.378.075-.4.354-.39.657.02.78-.006,1.564.062,2.34a1.176,1.176,0,0,0,2.343-.048c.03-.739.018-1.48,0-2.22-.006-.369-.145-.52-.6-.718h1.387c-.529.186-.563.573-.558.986q.01.848,0,1.7a1.528,1.528,0,0,1-1.657,1.593,1.546,1.546,0,0,1-1.717-1.569c-.016-.689-.011-1.378,0-2.066,0-.306,0-.586-.393-.652Z" transform="translate(-158.751 -449.297)"/>
          <path id="Path_89229" data-name="Path 89229" d="M804.538,481.468H803.18c.292-.11.209-.306.125-.5-.445-1.029-.446-1.008-1.64-1.041a.665.665,0,0,0-.768.5c-.212.586-.158.787.43,1.039H799.82a1.24,1.24,0,0,0,.788-.826c.469-1.016.93-2.038,1.4-3.057.051-.111.106-.219.189-.392.091.145.16.237.212.338.542,1.062,1.074,2.128,1.625,3.185a7.663,7.663,0,0,0,.51.753Zm-3.314-1.73h1.459l-.773-1.528Z" transform="translate(-750.426 -447.721)"/>
          <path id="Path_89230" data-name="Path 89230" d="M261.036,480.62c-.03.242-.046.487-.1.724a.33.33,0,0,1-.176.217,3.094,3.094,0,0,1-2.734-.225,2.056,2.056,0,0,1,.039-3.492,3.132,3.132,0,0,1,2.617-.287.378.378,0,0,1,.211.254,2.834,2.834,0,0,1,.024.822c-.041-.079-.084-.157-.124-.237a1.354,1.354,0,0,0-1.281-.858,1.4,1.4,0,0,0-1.324.855,2.642,2.642,0,0,0,0,2.354,1.472,1.472,0,0,0,1.341.889,1.345,1.345,0,0,0,1.272-.771l.156-.261.072.014Z" transform="translate(-241.203 -447.919)"/>
          <path id="Path_89231" data-name="Path 89231" d="M564.137,483.078c.326-.061.358-.3.358-.566q0-1.5,0-2.992c0-.29.007-.577-.386-.631h1.512c-.388.062-.394.338-.391.645.009.977,0,1.954,0,2.93,0,.391.049.43.448.443a1.618,1.618,0,0,0,1.642-.95c-.016.32-.022.641-.057.958a.265.265,0,0,1-.2.154c-.976.011-1.952.007-2.928.007Z" transform="translate(-529.273 -449.316)"/>
          <path id="Path_89232" data-name="Path 89232" d="M894.11,483.04c.374-.042.383-.308.383-.58,0-.976,0-1.953,0-2.928,0-.31.012-.61-.4-.682h1.525c-.411.074-.4.38-.4.7.007.955,0,1.911,0,2.867,0,.395.056.442.442.455a1.607,1.607,0,0,0,1.651-.956c-.019.344-.033.689-.064,1.031,0,.036-.108.091-.166.091-.994.006-1.988,0-2.983,0Z" transform="translate(-838.884 -449.278)"/>
          <path id="Path_89233" data-name="Path 89233" d="M436.392,213.182l.194-.147a1.683,1.683,0,0,0,.144.236c.107.124.217.314.346.333a.6.6,0,0,0,.472-.187c.085-.1.049-.316.044-.479a2,2,0,0,0-.068-.346l.153-.056c.048.1.144.2.134.285-.027.23.051.419.249.472a.808.808,0,0,0,.538-.067c.19-.1.193-.309.128-.52-.022-.072.06-.177.094-.266a.658.658,0,0,1,.194.117c.023.028-.011.111-.028.166-.064.2-.062.421.138.515a.826.826,0,0,0,.541.048c.206-.062.248-.264.21-.487-.014-.079.083-.177.142-.291.187.162.205.253.11.433a.555.555,0,0,0,.043.5.573.573,0,0,0,.477.162c.127-.025.222-.224.324-.351.05-.063.073-.152.131-.2.02-.017.16.048.16.076a.489.489,0,0,1-.073.233c-.118.2-.255.395-.369.6a.246.246,0,0,1-.375.127,3.546,3.546,0,0,0-3.207.007c-.169.081-.258.032-.346-.121-.14-.243-.3-.475-.5-.788Z" transform="translate(-409.44 -199.32)"/>
          <path id="Path_89234" data-name="Path 89234" d="M591.132,62.111l-.82-1.983-.075-.009-.551,1.444-.225-.077.738-1.917a1.972,1.972,0,0,1,.291.369c.228.513.435,1.035.726,1.56l.481-1.286.237.084-.72,1.816Z" transform="translate(-553.057 -55.891)"/>
          <path id="Path_89235" data-name="Path 89235" d="M206.944,131.31l1.375,1.535-2.354-.167,1.127,1.228-.162.167-1.4-1.526a1.576,1.576,0,0,1,.419-.1c.463.018.924.063,1.385.094.107.007.216,0,.408,0l-.963-1.049.164-.178Z" transform="translate(-192.837 -123.201)"/>
          <path id="Path_89236" data-name="Path 89236" d="M314.353,68.4l-.221.1-.8-1.377-.075.008-.159,1.183-.992-.7-.058.035c.151.51.3,1.02.459,1.551l-.183.081c-.186-.64-.368-1.266-.561-1.929.109-.109.267-.091.45.056.221.178.464.329.7.492.27-.39-.082-.986.416-1.231l1.031,1.73Z" transform="translate(-292.507 -62.553)"/>
          <path id="Path_89237" data-name="Path 89237" d="M165.479,180.573l-.14.19-1.569-1.212.136-.206.6.489.861-1.11-.61-.456.145-.2,1.57,1.215-.14.2-.807-.642-.863,1.107.813.626Z" transform="translate(-153.656 -167.073)"/>
          <path id="Path_89238" data-name="Path 89238" d="M533.076,46.016l.135-.746.243.037c-.132.655-.261,1.292-.393,1.948l-.235-.046c.059-.272.109-.529.172-.784.036-.147.012-.233-.155-.262-.334-.058-.664-.14-1-.185a.277.277,0,0,0-.214.16c-.07.254-.106.519-.16.8l-.23-.049c.128-.652.251-1.283.38-1.942l.242.041-.158.748Z" transform="translate(-498.433 -42.174)"/>
          <path id="Path_89239" data-name="Path 89239" d="M778.65,218.988a1.007,1.007,0,0,1-1.038,1.028,1.061,1.061,0,0,1-1.053-1.065,1.045,1.045,0,1,1,2.09.036Zm-.225-.036a.814.814,0,0,0-.79-.85.873.873,0,0,0-.843.918.818.818,0,0,0,.8.815A.852.852,0,0,0,778.425,218.952Z" transform="translate(-728.602 -204.462)"/>
          <path id="Path_89240" data-name="Path 89240" d="M695.77,124.969l1.269-1.519c.381.268.776.56.747,1.133a.969.969,0,0,1-.667.879C696.528,125.7,696.152,125.321,695.77,124.969Zm.32-.02a.779.779,0,0,0,.866.361.976.976,0,0,0,.633-.8.823.823,0,0,0-.5-.76Z" transform="translate(-652.802 -115.826)"/>
          <path id="Path_89241" data-name="Path 89241" d="M395.931,47.406c.222-.037.452-.086.684-.109a.461.461,0,0,1,.33.853c-.041.03-.078.064-.107.088l.9.824c-.2.087-.29.108-.428-.062a8.234,8.234,0,0,0-.828-.79.887.887,0,0,0,.311-.184,1.126,1.126,0,0,0,.114-.4,4.257,4.257,0,0,0-.565-.1.432.432,0,0,0-.089.282c.08.494.181.985.279,1.5l-.233.038c-.125-.653-.245-1.283-.372-1.945Z" transform="translate(-371.479 -44.371)"/>
          <path id="Path_89242" data-name="Path 89242" d="M672.035,104.2l-.828-.573-.362.506.8.545-.1.187-.8-.577-.469.671.849.585c-.188.132-.519-.039-1.134-.572l1.113-1.618c.716.377,1,.635.931.846Z" transform="translate(-628.614 -96.967)"/>
          <path id="Path_89243" data-name="Path 89243" d="M727.489,147.72l.18.188c-.288.279-.572.545-.845.821a.591.591,0,1,0,.829.835c.279-.258.559-.514.855-.786l.154.142a.984.984,0,0,1-.067.073c-.265.242-.532.481-.794.726a.792.792,0,0,1-1.175.035.816.816,0,0,1,.04-1.206,5.153,5.153,0,0,1,.422-.406c.145-.118.308-.212.464-.316l-.062-.106Z" transform="translate(-681.52 -138.597)"/>
          <path id="Path_89244" data-name="Path 89244" d="M630.059,78.16l.221.12-.316.581c.423.059.75-.328,1.148-.191l.022.09c-.274.084-.545.184-.824.246-.23.051-.268.161-.215.372.091.366.16.737.246,1.144l-.262-.114-.222-1.179-.073-.011-.407.815-.219-.1Z" transform="translate(-590.306 -73.333)"/>
          <path id="Path_89245" data-name="Path 89245" d="M243.29,110.67l-.232.182-1.122-.327-.054.062.534.726-.182.151-1.184-1.6.2-.156.384.549c.258-.348.015-.834.447-1.169l-.2,1.2,1.411.377Z" transform="translate(-226.164 -102.353)"/>
          <path id="Path_89246" data-name="Path 89246" d="M364.65,57.554l-.351.115c-.141-.535-.288-.594-.942-.392-.3.094-.381.322-.238.727l-.3.094c.1-.742.193-1.446.288-2.15l.089-.048Zm-1.407-1.26c-.044.325-.077.572-.117.872l.671-.2a1.578,1.578,0,0,0-.1-.149C363.568,56.663,363.434,56.511,363.243,56.293Z" transform="translate(-340.414 -52.448)"/>
          <path id="Path_89247" data-name="Path 89247" d="M754.823,184.67l-.165.183a4.216,4.216,0,0,0-.4-.736.757.757,0,0,0-.493-.2.825.825,0,0,0-.844.776c-.068.512.2.787.992,1.015-.287.2-.843-.023-1.088-.434a1.048,1.048,0,0,1,.408-1.437c.619-.342,1.184-.052,1.593.832Z" transform="translate(-706.199 -172.354)"/>
          <path id="Path_89248" data-name="Path 89248" d="M314.852,724.89a1.752,1.752,0,0,1,.223.321c.162.419.307.845.491,1.361l.481-1.084.187.06-.69,1.523-.656-1.805-.539,1.226-.179-.064.681-1.539Z" transform="translate(-294.768 -680.124)"/>
          <path id="Path_89249" data-name="Path 89249" d="M465.153,759.653v1.3l-.092.046c-.039-.063-.11-.126-.111-.19-.009-.472,0-.944,0-1.495a1.412,1.412,0,0,1,.322.178c.319.318.626.65,1.013,1.056,0-.4-.007-.7.005-1.008,0-.071.072-.14.11-.209l.074.047v1.53l-.067.048-1.249-1.309Z" transform="translate(-436.231 -712.427)"/>
          <path id="Path_89250" data-name="Path 89250" d="M490.07,41.208a3.618,3.618,0,0,1,1.914-.04c.074.017.131.108.245.209l-1-.07c-.044.61-.087,1.188-.131,1.791l-.238-.011c.049-.6.1-1.188.145-1.8l-.934-.078Z" transform="translate(-459.805 -38.531)"/>
          <path id="Path_89251" data-name="Path 89251" d="M141.4,213.694l-.471.773,1.548.924-.119.2-1.543-.933c-.165.278-.314.53-.464.781l-.065.015c0-.1-.035-.212.006-.284q.412-.723.858-1.428c.039-.062.153-.077.232-.114Z" transform="translate(-131.609 -200.437)"/>
          <path id="Path_89252" data-name="Path 89252" d="M431.67,41.192l-.811.065a.715.715,0,0,0-.113.046q.07.848.147,1.758l-.233.035c-.045-.594-.088-1.172-.136-1.8l-.924.062c.009-.258.211-.209.358-.219q.811-.06,1.622-.1c.026,0,.056.093.09.153Z" transform="translate(-403.069 -38.505)"/>
          <path id="Path_89253" data-name="Path 89253" d="M257.247,696.144a.831.831,0,0,1,.878-.831.888.888,0,0,1,.842.889.876.876,0,0,1-.874.821A.867.867,0,0,1,257.247,696.144Zm1.519.054a.705.705,0,0,0-.661-.745.673.673,0,0,0-.669.661.694.694,0,0,0,.677.755.661.661,0,0,0,.653-.672Z" transform="translate(-241.361 -652.373)"/>
          <path id="Path_89254" data-name="Path 89254" d="M284.2,90.495a1.126,1.126,0,0,0,.425-.093.637.637,0,0,0,.269-.388c.014-.208-.172-.307-.38-.321-.185-.012-.369-.019-.553-.04-.26-.03-.461-.148-.469-.437s.194-.436.458-.493c.179-.039.39-.13.435.161a1.616,1.616,0,0,0-.474.036.4.4,0,0,0-.218.282c-.007.065.143.19.243.218a2.03,2.03,0,0,0,.488.035c.4.01.621.167.674.492.049.3-.111.511-.485.641-.155.054-.323.188-.414-.092Z" transform="translate(-265.989 -83.201)"/>
          <path id="Path_89255" data-name="Path 89255" d="M589.667,739.052l.792.514-.044.113a.939.939,0,0,1-.244-.076c-.261-.167-.514-.346-.791-.534.085-.127.477-.212.245-.5-.077-.1-.336-.047-.6-.072l.539,1.465-.179.074c-.185-.508-.365-1-.547-1.5.447-.26.8-.306.95-.109.2.258.036.458-.124.63Z" transform="translate(-552.475 -692.705)"/>
          <path id="Path_89256" data-name="Path 89256" d="M500.775,758.232c0,.081,0,.161,0,.24a.6.6,0,0,1-.821.662.856.856,0,1,1,.528-1.627c.075.029.123.13.188.2a3.185,3.185,0,0,0-.671-.06.609.609,0,0,0-.5.729.735.735,0,0,0,.736.615c.307-.035.4-.165.358-.506-.015-.126-.1-.307.183-.256Z" transform="translate(-468.48 -710.674)"/>
          <path id="Path_89257" data-name="Path 89257" d="M289.359,711.149l.155.1c-.167.294-.324.579-.49.858a.637.637,0,0,1-.9.263.656.656,0,0,1-.266-.9c.146-.292.312-.574.477-.875l.185.091c-.161.284-.322.553-.469.829a.478.478,0,0,0,.172.713.489.489,0,0,0,.671-.244C289.054,711.713,289.2,711.441,289.359,711.149Z" transform="translate(-270.009 -666.707)"/>
          <path id="Path_89258" data-name="Path 89258" d="M681.325,684.65l-.647.5.3.408.626-.487.1.128-.632.483.4.524.653-.492c.063.18.017.227-.718.721l-.978-1.282a3.546,3.546,0,0,1,.844-.583l.05.081Z" transform="translate(-638.409 -642.294)"/>
          <path id="Path_89259" data-name="Path 89259" d="M370.009,745.5a3.8,3.8,0,0,1,.966.327c-.008.027-.016.055-.025.082l-.8-.2-.13.471.745.213c-.052.152-.051.149-.313.073-.145-.043-.293-.077-.471-.123-.062.215-.117.406-.18.626l.8.238-.02.08c-.351.043-.657-.165-1.005-.2l.439-1.587Z" transform="translate(-346.747 -699.461)"/>
          <path id="Path_89260" data-name="Path 89260" d="M564.2,745.544l.733-.22c.034.161.034.159-.225.23-.147.04-.293.087-.47.141l.177.63.783-.209.033.089a4.232,4.232,0,0,1-.954.326c-.15-.522-.3-1.029-.45-1.566a7.677,7.677,0,0,1,1-.265c.01.039.02.08.029.119l-.8.238.143.487Z" transform="translate(-529.01 -698.71)"/>
          <path id="Path_89261" data-name="Path 89261" d="M231.815,675.891c-.16-.477-.467-.723-.8-.675a.7.7,0,0,0-.583.724c.007.441.241.619.945.72a.768.768,0,0,1-.965-.236.843.843,0,0,1,.069-1.1.818.818,0,0,1,1.116-.087c.172.149.455.3.217.653Z" transform="translate(-216.022 -633.369)"/>
          <path id="Path_89262" data-name="Path 89262" d="M658.124,702.894c-.549.044-.85.275-.88.635a.7.7,0,0,0,.517.716c.414.129.639-.028.978-.679a.767.767,0,0,1-.516.841.846.846,0,0,1-1.045-.419.817.817,0,0,1,.267-1.064c.182-.114.394-.314.678-.029Z" transform="translate(-616.505 -659.349)"/>
          <path id="Path_89263" data-name="Path 89263" d="M612.965,721.79v1.892l-1.415-1.2.2-.1,1.073.936a5.554,5.554,0,0,1,.01-.856C612.868,722.268,612.64,722.011,612.965,721.79Z" transform="translate(-573.783 -677.215)"/>
          <path id="Path_89264" data-name="Path 89264" d="M453.882,240.046a3.711,3.711,0,0,0-3.132.014A2.991,2.991,0,0,1,453.882,240.046Z" transform="translate(-422.913 -224.812)"/>
          <path id="Path_89265" data-name="Path 89265" d="M347.767,742c.112.08.194.181.291.2.126.021.335.018.379-.053a.513.513,0,0,0-.019-.409c-.082-.183-.255-.33-.322-.516-.037-.1.036-.34.109-.364a.873.873,0,0,1,.506.023c.089.028.142.171.211.262l-.073.051c-.08-.076-.148-.179-.242-.219a.877.877,0,0,0-.312-.012c0,.1-.036.227.006.308a3.062,3.062,0,0,0,.287.36.469.469,0,0,1-.092.7.641.641,0,0,1-.744-.172c-.018-.033.007-.091.015-.16Z" transform="translate(-326.269 -695.077)"/>
          <path id="Path_89266" data-name="Path 89266" d="M543.886,752.929c-.241-.081-.506-.2-.592.072s.224.28.4.358c.112.049.272.068.326.154a.723.723,0,0,1,.141.487.554.554,0,0,1-.37.3c-.12.03-.347.145-.437-.14a.925.925,0,0,0,.337.024c.122-.042.307-.135.314-.219a.483.483,0,0,0-.2-.353c-.154-.111-.371-.135-.521-.248a.349.349,0,0,1,.128-.636,1.136,1.136,0,0,1,.457.063c.012,0,.01.073.017.141Z" transform="translate(-509.588 -706.231)"/>
          <path id="Path_89267" data-name="Path 89267" d="M702.849,674.011a1.187,1.187,0,0,0,.362-.168c.081-.084.171-.253.136-.331a.447.447,0,0,0-.322-.208c-.211-.02-.432.06-.64.03-.109-.015-.288-.19-.275-.264a.892.892,0,0,1,.26-.435c.067-.067.215-.052.327-.075l.02.1a1,1,0,0,0-.3.105.963.963,0,0,0-.173.262c.09.052.177.141.27.148a2.254,2.254,0,0,0,.424-.061.478.478,0,0,1,.6.421.622.622,0,0,1-.522.562c-.043,0-.088-.043-.167-.085Z" transform="translate(-658.75 -631.025)"/>
          <path id="Path_89268" data-name="Path 89268" d="M194.489,164.629l-.151.172-1.458-1.344.147-.186,1.461,1.359Z" transform="translate(-180.968 -153.187)"/>
          <path id="Path_89269" data-name="Path 89269" d="M573.637,57.222l-.217-.066.547-1.906.227.056-.558,1.917Z" transform="translate(-538.008 -51.838)"/>
          <path id="Path_89270" data-name="Path 89270" d="M423.273,757.893l.839.115c-.352.2-.691.018-1.042.028.067-.556.13-1.073.193-1.59l.065-.046c.038.073.113.15.106.218C423.394,757.026,423.334,757.433,423.273,757.893Z" transform="translate(-396.943 -709.688)"/>
          <path id="Path_89271" data-name="Path 89271" d="M396.886,753.691l.81.178-.013.094a4.345,4.345,0,0,1-1.012-.146l.314-1.588.189.022c-.095.474-.188.939-.287,1.44Z" transform="translate(-372.173 -705.775)"/>
          <path id="Path_89272" data-name="Path 89272" d="M641.97,717.19c.064.042.152.069.186.127.233.409.455.826.692,1.262l-.154.106-.764-1.4Z" transform="translate(-602.287 -672.899)"/>
          <path id="Path_89273" data-name="Path 89273" d="M450.122,758.97c.033.071.1.143.094.212a10.843,10.843,0,0,1-.151,1.433c-.041-.066-.12-.134-.117-.2.022-.469.061-.938.095-1.407l.079-.041Z" transform="translate(-422.161 -712.099)"/>
        </g>
      </g>
    </g>
  </g>
</svg>
