<svg xmlns="http://www.w3.org/2000/svg" width="216" height="102" viewBox="0 0 216 102">
  <g id="Group_43834" data-name="Group 43834" transform="translate(-1011 -1937)">
    <rect id="Rectangle_6520" data-name="Rectangle 6520" width="216" height="102" rx="20" transform="translate(1011 1937)" fill="rgba(255,255,255,0.1)" opacity="0"/>
    <g id="woodland-seeklogo" transform="translate(1055.564 1956.918)">
      <path id="Path_48494" data-name="Path 48494" d="M27.2,30.6c2.573,0,3.242,3.589,3.242,6.574,0,1.775-.1,6.574-3.242,6.574s-3.255-4.8-3.255-6.574C23.942,34.188,24.624,30.6,27.2,30.6Zm0-.669c-3.551,0-6.5,2.792-6.5,7.243s2.74,7.243,6.5,7.243,6.5-2.959,6.5-7.243-2.959-7.243-6.5-7.243" transform="translate(5.93 8.574)" fill="#fff"/>
      <path id="Path_48495" data-name="Path 48495" d="M38.3,30.6c2.573,0,3.255,3.589,3.255,6.574,0,1.775-.116,6.574-3.255,6.574s-3.242-4.8-3.242-6.574C35.058,34.188,35.739,30.6,38.3,30.6Zm0-.669c-3.538,0-6.51,2.792-6.51,7.243s2.74,7.243,6.51,7.243,6.5-2.959,6.5-7.243-2.959-7.243-6.5-7.243" transform="translate(9.107 8.574)" fill="#fff"/>
      <path id="Path_48496" data-name="Path 48496" d="M47.1,31.8c-.013-.437-.039-.952,1.132-.952,3.165,0,3.576,4.335,3.576,6.2,0,4.876-1.621,6.175-3.666,6.175-.875,0-1.042-.373-1.042-1.184V31.791ZM42.6,43.961h5.8c4.631-.167,6.612-3.345,6.612-7.1,0-3.139-1.672-6.69-6.818-6.69H42.6v.5c.72.09,1.531.129,1.531,1.377V42.1c0,.759-.373,1.351-1.531,1.351v.515" transform="translate(12.203 8.643)" fill="#fff"/>
      <path id="Path_48497" data-name="Path 48497" d="M63.593,43.961H52.98v-.515c1.029-.142,1.582-.206,1.582-1.454V32.125c0-1.351-.746-1.389-1.582-1.454v-.5h6.407v.5c-1.286.064-1.853.09-1.853,1.878v9.623c0,.978.4,1.145,1.634,1.145,2.779,0,3.8-1.7,4.644-4h.54l-.746,4.631Z" transform="translate(15.177 8.643)" fill="#fff"/>
      <path id="Path_48498" data-name="Path 48498" d="M74.842,44.024H68.9v-.515c1.145-.1,1.467-.116,1.467-.8A12.565,12.565,0,0,0,69.516,40h-4.13a14.173,14.173,0,0,0-.81,2.637c0,.772.875.849,1.505.875v.515H62.35v-.515c.991-.167,1.248-.862,1.8-2.38L68.229,29.95h.515l4.091,10.729c.823,2.174,1.119,2.869,1.994,2.83v.515Zm-5.6-4.824-1.853-4.953L65.669,39.2h3.576" transform="translate(17.861 8.58)" fill="#fff"/>
      <path id="Path_48499" data-name="Path 48499" d="M72.76,43.958h4.168v-.515c-1.351-.167-1.737-.553-1.737-2.02V33.268h.039l8.182,11.064h.515V32.316c0-.991.116-1.441,1.428-1.634v-.5H81.405v.5c1.479.129,1.7.8,1.7,2.02v6.188h-.039L76.7,30.18H72.824v.5c.244,0,.527.064,1.557,1.467v9.674c0,1.338-.515,1.479-1.621,1.634v.515Z" transform="translate(20.843 8.646)" fill="#fff"/>
      <path id="Path_48500" data-name="Path 48500" d="M24.276,30.28c-.875.09-1.441.849-1.737,2.02L17.5,51.288h-.682L12.582,36.52H12.4L7.809,51.288H7.1L1.737,32.3C1.312,30.782,1.055,30.473,0,30.28v-.8H7.423v.8c-.9.09-1.621.154-1.621,1.325a3.774,3.774,0,0,0,.18,1.042l3.01,11.385h.051L12,34.423l-.875-3.036c-.334-.695-.6-1.042-1.814-1.106v-.8h7.873v.8c-1.093.09-1.827.129-1.827,1.2a9.771,9.771,0,0,0,.347,1.737l2.7,10.5h.051l2.792-10.729a4.691,4.691,0,0,0,.18-1.325c0-1.3-.888-1.325-1.75-1.389v-.8h4.593v.8Z" transform="translate(0 8.442)" fill="#fff"/>
      <path id="Path_48501" data-name="Path 48501" d="M91.535,31.88c-.026-.682-.051-1.467,1.569-1.467,4.335,0,4.914,6.715,4.914,9.584,0,7.539-2.226,9.558-5.043,9.558-1.209,0-1.441-.566-1.441-1.827V31.893ZM85.36,50.637h7.976c6.355-.244,9.082-5.172,9.082-10.974,0-4.863-2.29-10.343-9.353-10.343H85.373V30.1c.978.129,2.1.193,2.1,2.11V47.768a1.848,1.848,0,0,1-2.1,2.071v.785" transform="translate(24.453 8.399)" fill="#fff"/>
      <path id="Path_48502" data-name="Path 48502" d="M45.576,43.8H54.71s.618,4.786.823,5.815H44.74Z" transform="translate(12.816 12.547)" fill="#fff"/>
      <path id="Path_48503" data-name="Path 48503" d="M54.791,30.2a4.492,4.492,0,0,1,3.924-4.258s-1.093-4.5-5.275-1.66V20.96H48.693v3.319s-3.628-3.088-5.583,1.351A4.057,4.057,0,0,1,46.8,30.2Z" transform="translate(12.349 6.004)" fill="#fff"/>
      <path id="Path_48504" data-name="Path 48504" d="M38.78,3.56c-.232,2.56.232,8.594,6.188,9.057,0,0,1.132-6.265-6.188-9.057Z" transform="translate(11.096 1.02)" fill="#fff"/>
      <path id="Path_48505" data-name="Path 48505" d="M47.009,4.81c-1.582,2.033-4.477,7.333.283,10.948,0,0,4.348-4.85-.283-10.948Z" transform="translate(12.799 1.378)" fill="#fff"/>
      <path id="Path_48506" data-name="Path 48506" d="M50.531,0c-1.621,2.007-4.361,6.883-.154,10.9C50.377,10.9,55.613,6.51,50.531,0Z" transform="translate(13.792)" fill="#fff"/>
      <path id="Path_48507" data-name="Path 48507" d="M50.311,10.48c-1.621,2.007-4.528,6.857-.219,10.781,0,0,4.914-4.374.219-10.781Z" transform="translate(13.704 3.002)" fill="#fff"/>
      <path id="Path_48508" data-name="Path 48508" d="M40.62,15.856c1.132,2.3,4.631,7.243,9.957,4.567,0,0-2.187-6.124-9.957-4.567Z" transform="translate(11.636 4.47)" fill="#fff"/>
      <path id="Path_48509" data-name="Path 48509" d="M36.78,10.209c.823,2.341,3.6,7.461,9.018,5.506,0,0-1.389-6.1-9.018-5.506Z" transform="translate(10.536 2.913)" fill="#fff"/>
      <path id="Path_48510" data-name="Path 48510" d="M30.15,11.786c1.184,2.316,4.593,6.291,10.163,4.4C40.313,16.186,38.2,9.934,30.15,11.786Z" transform="translate(8.637 3.278)" fill="#fff"/>
      <path id="Path_48511" data-name="Path 48511" d="M30.47,22.615c1.865,1.66,6.252,4.027,10.575.425C41.045,23.039,37.018,18.189,30.47,22.615Z" transform="translate(8.729 5.945)" fill="#fff"/>
      <path id="Path_48512" data-name="Path 48512" d="M35.1,28.991c2.457.36,7.436-.077,9.057-5.455C44.157,23.536,38.123,21.7,35.1,28.991Z" transform="translate(10.055 6.683)" fill="#fff"/>
      <path id="Path_48513" data-name="Path 48513" d="M35.78,17.109c.849,2.431,3.718,7.745,9.34,5.725,0,0-1.428-6.342-9.34-5.725Z" transform="translate(10.25 4.889)" fill="#fff"/>
      <path id="Path_48514" data-name="Path 48514" d="M63.219,4.03C63.142,6.6,62,12.546,56.041,12.3c0,0-.4-6.342,7.178-8.272Z" transform="translate(16.053 1.154)" fill="#fff"/>
      <path id="Path_48515" data-name="Path 48515" d="M54.6,4.92c1.235,2.251,3.268,7.95-1.994,10.768C52.607,15.688,49.082,10.195,54.6,4.92Z" transform="translate(14.752 1.409)" fill="#fff"/>
      <path id="Path_48516" data-name="Path 48516" d="M60.99,16.613C59.614,18.787,55.561,23.277,50.57,20,50.57,20,53.439,14.169,60.99,16.613Z" transform="translate(14.487 4.588)" fill="#fff"/>
      <path id="Path_48517" data-name="Path 48517" d="M64.477,10.868c-.952,2.277-4.04,7.23-9.327,4.953C55.15,15.821,56.9,9.8,64.477,10.868Z" transform="translate(15.799 3.077)" fill="#fff"/>
      <path id="Path_48518" data-name="Path 48518" d="M71.145,12.8C69.82,15.048,66.2,18.8,60.75,16.6,60.75,16.6,63.207,10.481,71.145,12.8Z" transform="translate(17.403 3.516)" fill="#fff"/>
      <path id="Path_48519" data-name="Path 48519" d="M71.045,23.273c-1.943,1.544-6.471,3.666-10.575-.167C60.47,23.106,64.767,18.488,71.045,23.273Z" transform="translate(17.323 6.045)" fill="#fff"/>
      <path id="Path_48520" data-name="Path 48520" d="M64.911,29.569c-2.47.219-7.423-.489-8.761-5.931C56.15,23.638,62.274,22.12,64.911,29.569Z" transform="translate(16.085 6.735)" fill="#fff"/>
      <path id="Path_48521" data-name="Path 48521" d="M64.88,17.392c-.733,2.47-2.985,7.2-9.07,6.136C55.81,23.528,56.955,17.147,64.88,17.392Z" transform="translate(15.988 4.98)" fill="#fff"/>
    </g>
  </g>
</svg>
