<svg xmlns="http://www.w3.org/2000/svg" width="216" height="102" viewBox="0 0 216 102">
  <g id="Group_43827" data-name="Group 43827" transform="translate(-1329 -1937)">
    <rect id="Rectangle_6521" data-name="Rectangle 6521" width="216" height="102" rx="20" transform="translate(1329 1937)" fill="rgba(255,255,255,0.1)" opacity="0"/>
    <g id="Layer_1-2" transform="translate(1397.581 1953.553)">
      <path id="Path_88808" data-name="Path 88808" d="M77.747,64.3a6.2,6.2,0,0,1,.873,2.862,22.745,22.745,0,0,1-.272,7.851,17.7,17.7,0,0,1-4.705,9.518c-1.284,1.272-2.489,2.623-3.78,3.884a12.886,12.886,0,0,1-10.231,3.545,34.905,34.905,0,0,1-5.216-.8,12.479,12.479,0,0,1-4.933-2.575,41.045,41.045,0,0,1-8.992-10.4,123.945,123.945,0,0,1-9.134-17.253c-.866-1.937-1.713-3.88-2.6-5.9-.78.634-1.515,1.243-2.269,1.836a26.54,26.54,0,0,1-8.5,4.713A15.31,15.31,0,0,1,5.66,60.444a10.553,10.553,0,0,1-5-5.056A8.5,8.5,0,0,1,.846,48.4a13.407,13.407,0,0,1,2.918-4.082,61.406,61.406,0,0,1,4.418-4.4A12.4,12.4,0,0,1,19.327,37.2a15.632,15.632,0,0,1,8.518,5.727,29.514,29.514,0,0,1,4.254,7.2c2.466,5.709,4.921,11.425,7.88,16.9a71.219,71.219,0,0,0,9.3,13.914A25.705,25.705,0,0,0,55.1,85.932,15.456,15.456,0,0,0,60.93,87.85a18.071,18.071,0,0,0,6.03-.015,12.5,12.5,0,0,0,4.675-1.806,1.648,1.648,0,0,0,.448-.511,21.089,21.089,0,0,0,2.776-8.63,18.734,18.734,0,0,0-.015-5.537c-.19-1.045-.541-2.06-.8-3.089-.045-.175-.09-.455,0-.541,1.205-1.142,2.433-2.261,3.7-3.422ZM12.428,40.8a12.482,12.482,0,0,0-6.31,1.851,2.476,2.476,0,0,0-.888.769C2.925,47.3,3.305,51.59,6.816,54.717a14.978,14.978,0,0,0,6.194,3.242,13.428,13.428,0,0,0,4.873.485,21.99,21.99,0,0,0,10.13-3.888.549.549,0,0,0,.213-.8A27.551,27.551,0,0,0,22.394,45a13.762,13.762,0,0,0-9.97-4.205Z" transform="translate(0 -23.095)" fill="#fff"/>
      <path id="Path_88809" data-name="Path 88809" d="M107.043,68.356h-1.769c.03-.623.336-.776.825-.784,1.19-.019,1.183-.03,1.437-1.2.175-.817.381-1.623.59-2.507h-3.653a2.731,2.731,0,0,1,.164,2.955,4.026,4.026,0,0,1-2.787,1.534,17.981,17.981,0,0,0,1.138,2.537,6.868,6.868,0,0,0,5.6,3.586,5.028,5.028,0,0,0,2.056-.485c.5-.213.724-.134.914.317-2.433,1.429-5.254,1.578-7.369-.993-.892-1.082-1.623-2.3-2.451-3.436-.687-.94-1.41-1.854-2.127-2.791a1.22,1.22,0,0,1,1.772.272.632.632,0,0,0,.933.284,2.4,2.4,0,0,0,.791-3.6,1.027,1.027,0,0,0-.683-.228c-.948-.026-1.9.007-2.843-.026a2.111,2.111,0,0,1-.664-.28c.231-.112.459-.317.69-.321,2.045-.026,4.086-.015,6.13-.019q6.224,0,12.451-.011h.877a15.841,15.841,0,0,0-3.981-3.776c.567-.724.9-.825,1.481-.272,1.224,1.153,2.4,2.358,3.548,3.582a1.256,1.256,0,0,0,1.011.474q7.142-.011,14.283.007a1.88,1.88,0,0,1,.563.022c.146.045.261.2.388.3-.134.1-.287.306-.4.287-1.06-.2-1.343.373-1.526,1.291-.381,1.9-.881,3.765-1.325,5.645a2.056,2.056,0,0,0-.034.567c.034.552.414.772.918.53.149-.071.269-.205.418-.276a5.413,5.413,0,0,1,.556-.19,1.723,1.723,0,0,1-.265.5,3.038,3.038,0,0,1-.78.522,1.5,1.5,0,0,1-2.179-1.657,25.429,25.429,0,0,1,.649-2.951c.28-1.164.582-2.321.869-3.485a2.21,2.21,0,0,0,0-.455c-.9,0-1.776-.015-2.653.015-.119,0-.3.216-.34.358-.534,2.142-1.048,4.287-1.563,6.433a1.04,1.04,0,0,0-.06.433c.06.272.1.679.276.757a1.275,1.275,0,0,0,.851-.134,3.787,3.787,0,0,0,.7-.534c0,.254.041.392-.007.481a2.124,2.124,0,0,1-2.295.772,1.735,1.735,0,0,1-.877-2.078c.16-.623.317-1.246.493-1.944-.664-.037-1.216-.071-1.784-.1.1-.649.5-.724.978-.724,1.048,0,1.034-.015,1.261-1.022.194-.858.425-1.705.668-2.653h-3.642a2.83,2.83,0,0,1,.093,2.974,4,4,0,0,1-2.586,1.463c.187.963.31,1.877.548,2.757.246.918.563,1.037,1.433.687.194-.078.377-.179.563-.276a.574.574,0,0,1,.843.276c-1.664,1.489-3.862.716-4.481-1.571a15.33,15.33,0,0,0-.578-1.929,6.545,6.545,0,0,0-.8-1.149,1.258,1.258,0,0,1,1.918.351.494.494,0,0,0,.672.228,2.305,2.305,0,0,0,.94-3.686.9.9,0,0,0-.631-.194c-.8,0-1.6.052-2.4.045-.414,0-.481.284-.552.563-.287,1.142-.56,2.287-.836,3.433-.22.918-.437,1.839-.646,2.757a2.746,2.746,0,0,0-.123.806c.022.269.108.705.265.754a1.554,1.554,0,0,0,.925-.142,3.737,3.737,0,0,0,.731-.563c-.015.284.034.463-.037.567a2.2,2.2,0,0,1-2.66.646,1.8,1.8,0,0,1-.619-1.925c.313-1.392.668-2.776,1.007-4.164.209-.854.425-1.705.664-2.675-.493-.037-.9-.093-1.306-.1-2.548-.007-5.1.011-7.645,0-.4,0-.5.213-.571.522-.377,1.575-.769,3.145-1.138,4.72a14.126,14.126,0,0,0-.366,1.918,1.074,1.074,0,0,0,.291.869c.187.112.582-.116.881-.216.224-.075.437-.183.657-.276a2.165,2.165,0,0,1-.418.627,2.587,2.587,0,0,1-1,.493c-1.295.243-2.127-.836-1.757-2.22.157-.582.291-1.172.474-1.907Z" transform="translate(-62.015 -36.838)" fill="#fff"/>
      <path id="Path_88810" data-name="Path 88810" d="M111.231,0C105.4,9.265,99.6,18.54,91.8,26.372c-.034-.075-.067-.123-.056-.134A161.682,161.682,0,0,0,106.22,5.921a34.612,34.612,0,0,1,4.742-5.7,2.6,2.6,0,0,1,.272-.22Z" transform="translate(-57.517)" fill="#fff"/>
      <path id="Path_88811" data-name="Path 88811" d="M137.175,77.909a6.559,6.559,0,0,0-3.358-.72,3.062,3.062,0,0,0-2.892,2.53,1.424,1.424,0,0,0,.881,1.582,1.748,1.748,0,0,0,1.9-.231,1.661,1.661,0,0,0,.407-1.8c-.1-.295-.246-.575-.373-.858a1.255,1.255,0,0,1,1.757.526,1.953,1.953,0,0,1-.5,2.295,4.364,4.364,0,0,1-4.586.254,2.258,2.258,0,0,1-.082-3.713,4.866,4.866,0,0,1,2.783-1.078,27.953,27.953,0,0,1,3.571.209c.578.052.7.433.5,1.007Z" transform="translate(-81.117 -48.074)" fill="#fff"/>
      <path id="Path_88812" data-name="Path 88812" d="M-24.084-7.658h.4L-25.36-4.586h-.385l.47-.869-.519-2.2h.39l.394,1.719Zm1.334,2.292a1,1,0,0,1-.73-.282.957.957,0,0,1-.287-.712,1.328,1.328,0,0,1,.363-.954,1.214,1.214,0,0,1,.918-.381,1,1,0,0,1,.728.28.946.946,0,0,1,.289.71,1.329,1.329,0,0,1-.365.958A1.216,1.216,0,0,1-22.749-5.365Zm.04-.34a.773.773,0,0,0,.609-.271,1,1,0,0,0,.237-.687.688.688,0,0,0-.186-.495.63.63,0,0,0-.477-.195.774.774,0,0,0-.611.269,1.009,1.009,0,0,0-.235.69.688.688,0,0,0,.186.495A.63.63,0,0,0-22.709-5.706Zm3.8-1.952L-19.27-5.4h-.381l.067-.425a1.026,1.026,0,0,1-.846.461.688.688,0,0,1-.546-.219.67.67,0,0,1-.134-.578l.237-1.5h.381l-.228,1.424a.472.472,0,0,0,.078.378.419.419,0,0,0,.351.146.7.7,0,0,0,.542-.257,1.358,1.358,0,0,0,.3-.7l.157-.99Zm1.836.372a.709.709,0,0,0-.282-.054.672.672,0,0,0-.5.282,1.591,1.591,0,0,0-.32.8l-.134.86H-18.7l.358-2.257h.381l-.076.479a.988.988,0,0,1,.336-.365.794.794,0,0,1,.443-.15.742.742,0,0,1,.26.04Zm2.346-.372L-15-5.965l-.072.457a1.066,1.066,0,0,1-.4.692,1.25,1.25,0,0,1-.8.266,1.018,1.018,0,0,1-.64-.19.6.6,0,0,1-.246-.495l.376-.063a.334.334,0,0,0,.146.307.683.683,0,0,0,.419.119.812.812,0,0,0,.51-.166.666.666,0,0,0,.26-.43l.049-.313a.754.754,0,0,1-.32.233,1.159,1.159,0,0,1-.454.09.881.881,0,0,1-.678-.257.95.95,0,0,1-.24-.674,1.314,1.314,0,0,1,.347-.929,1.19,1.19,0,0,1,.916-.374.894.894,0,0,1,.41.094.617.617,0,0,1,.271.246l.045-.3ZM-16.087-5.8a.809.809,0,0,0,.613-.255.918.918,0,0,0,.242-.658.652.652,0,0,0-.163-.468.585.585,0,0,0-.446-.172.809.809,0,0,0-.613.255.918.918,0,0,0-.242.658.659.659,0,0,0,.161.466A.579.579,0,0,0-16.087-5.8Zm2.74-1.894a.889.889,0,0,1,.681.262.734.734,0,0,1,.179.66L-12.7-5.4h-.376l.063-.39a.886.886,0,0,1-.343.311,1.009,1.009,0,0,1-.477.114.742.742,0,0,1-.5-.172.548.548,0,0,1-.2-.432.631.631,0,0,1,.287-.551,1.9,1.9,0,0,1,.891-.251l.506-.049.009-.049a.378.378,0,0,0-.123-.365.614.614,0,0,0-.423-.141.65.65,0,0,0-.41.13.554.554,0,0,0-.208.354l-.345-.067A.877.877,0,0,1-14-7.492,1.089,1.089,0,0,1-13.347-7.694Zm-.381,2.015a.763.763,0,0,0,.54-.193.942.942,0,0,0,.271-.546l.018-.107-.493.049a1.433,1.433,0,0,0-.578.152.349.349,0,0,0-.184.313.291.291,0,0,0,.114.242A.492.492,0,0,0-13.727-5.679Zm1.6.278.358-2.257h.381l-.067.425a1.026,1.026,0,0,1,.846-.461.688.688,0,0,1,.546.219A.67.67,0,0,1-9.93-6.9l-.237,1.5h-.381l.224-1.424A.472.472,0,0,0-10.4-7.2a.414.414,0,0,0-.347-.146.7.7,0,0,0-.544.257,1.369,1.369,0,0,0-.3.7l-.157.99Zm3.188-2.682a.255.255,0,0,1-.188-.076A.255.255,0,0,1-9.2-8.347a.263.263,0,0,1,.076-.19.252.252,0,0,1,.188-.078.272.272,0,0,1,.2.078.255.255,0,0,1,.081.19.248.248,0,0,1-.081.188A.276.276,0,0,1-8.941-8.083ZM-9.594-5.4l.358-2.257h.381L-9.214-5.4Zm2,.036a.97.97,0,0,1-.725-.289A1.01,1.01,0,0,1-8.6-6.391a1.293,1.293,0,0,1,.351-.943,1.222,1.222,0,0,1,.916-.36.979.979,0,0,1,.656.226.735.735,0,0,1,.275.562l-.407.072A.483.483,0,0,0-6.975-7.2a.569.569,0,0,0-.4-.154.756.756,0,0,0-.6.253.973.973,0,0,0-.224.669.763.763,0,0,0,.179.519.588.588,0,0,0,.466.206.7.7,0,0,0,.412-.119.574.574,0,0,0,.228-.329l.385.072a.93.93,0,0,1-.381.526A1.2,1.2,0,0,1-7.593-5.365Z" transform="translate(84.071 44.952)" fill="#fff"/>
    </g>
  </g>
</svg>
