<svg xmlns="http://www.w3.org/2000/svg" width="216" height="102" viewBox="0 0 216 102">
  <g id="Group_43823" data-name="Group 43823" transform="translate(-693 -1937)">
    <rect id="Rectangle_6519" data-name="Rectangle 6519" width="216" height="102" rx="20" transform="translate(693 1937)" fill="rgba(255,255,255,0.1)" opacity="0"/>
    <g id="wvy740.tif" transform="translate(727.475 1973.525)">
      <path id="Path_48924" data-name="Path 48924" d="M240.791,24.5a6.821,6.821,0,0,1-3.639,2.807c-1.859.514-2.982.034-3.563-1.771-.936-2.911-1.771-5.856-2.651-8.786a10.067,10.067,0,0,0-.529-1.56,1.458,1.458,0,0,0-2.379-.612,5.947,5.947,0,0,0-1.153.973,97.233,97.233,0,0,0-9.3,11.535,3.219,3.219,0,0,1-1.44,1.287c-.9.37-1.841.743-2.759.132-.979-.651-.541-1.633-.422-2.492.125-.887.358-1.762.544-2.642-.395-.957.7-1.572.575-2.468a7.757,7.757,0,0,1,.41-1.722c.144-.407.229-.829.339-1.245.676-1.945,1.287-3.914,2.049-5.832.144-.361.376-.85.028-1.135-.474-.382-.814.15-1.162.391-.691.474-2.11,1.373-2.11,1.373s-1.914-1.1-2.281-2.245A64.408,64.408,0,0,1,222.393.12h1.22c1.59,1.361,1.572,3.2,1.37,5a32.636,32.636,0,0,1-2.719,8.9c-.187.443-.541.841-.462,1.44.667.073.82-.5,1.11-.838a29.968,29.968,0,0,1,7.9-6.994c2.19-1.208,3.627-.89,4.621,1.367a22.317,22.317,0,0,1,.832,2.728c1,.581.275,1.786.933,2.489a39.623,39.623,0,0,0,2.147,6.309c.257,1.4,1.382,2.5,1.431,3.979Z" transform="translate(-145.972 0)" fill="gray"/>
      <path id="Exclusion_8" data-name="Exclusion 8" d="M8.873,18.027a8.4,8.4,0,0,1-2.708-.452A9.416,9.416,0,0,1,3.48,16.12a8.516,8.516,0,0,1-1.862-1.982A9.335,9.335,0,0,1,.438,11.693,9.448,9.448,0,0,1,0,9.016,8.612,8.612,0,0,1,3.275,2.074,9.388,9.388,0,0,1,8.161.045,7.282,7.282,0,0,1,8.972,0a8.858,8.858,0,0,1,8.095,5.771l.3.84.149.42.149.42v2.715l0,0c-1.282,0-2.625.006-3.7.011-1.191,0-2.673.011-4.078.011-2.058,0-3.753-.013-5.333-.04H4.455c-.539,0-.835.082-.956.267-.142.216-.04.557.183,1.073a5.857,5.857,0,0,0,5.281,3.5,4.777,4.777,0,0,0,1.824-.35,4.472,4.472,0,0,0,1.58-1.1,4.41,4.41,0,0,1,1.627-1.154,4.575,4.575,0,0,1,1.712-.287c.417,0,.846.036,1.21.07a7.622,7.622,0,0,1-2.9,4.147A8.692,8.692,0,0,1,8.873,18.027ZM8.92,7.4c1.64,0,2.952.013,4.13.039h.1c.482,0,.758-.08.867-.252.131-.208.025-.526-.217-1.039A5.277,5.277,0,0,0,11.86,3.883a5.343,5.343,0,0,0-2.9-.787,7.136,7.136,0,0,0-.726.037A5.221,5.221,0,0,0,5.189,4.386,5.841,5.841,0,0,0,3.517,7.411H3.6c.907,0,1.862,0,2.629-.007h.329C7.333,7.4,8.135,7.4,8.92,7.4Z" transform="translate(128.316 8.972)" fill="#fff"/>
      <path id="Exclusion_7" data-name="Exclusion 7" d="M8.917,18.006A9.285,9.285,0,0,1,6.7,17.73a8.666,8.666,0,0,1-5.1-3.609A9.562,9.562,0,0,1,.048,7.845,9.024,9.024,0,0,1,8.551.01C8.673,0,8.8,0,8.932,0a8.125,8.125,0,0,1,3.441.776,9.422,9.422,0,0,1,4.754,5.092,8.332,8.332,0,0,1,.559,3.558c-.046.7-.365.757-.661.757-.072,0-.148,0-.218-.009h-.053c-.048,0-.1,0-.156,0h-.025l-2.687.009h-.3c-1.212,0-2.464.01-3.695.01-2.083,0-3.787-.013-5.361-.04H4.443c-.542,0-.837.083-.96.271-.145.223-.036.583.188,1.1a5.694,5.694,0,0,0,2.151,2.54,5.572,5.572,0,0,0,3,.88,5.287,5.287,0,0,0,2.256-.5A5.405,5.405,0,0,0,13.012,12.9a2.121,2.121,0,0,1,1.841-.841c.181,0,.361.01.551.021l.032,0h.015c.176.01.4.023.611.023a3.259,3.259,0,0,0,1.053-.151l0,0a11.768,11.768,0,0,1-1.481,2.594,9.321,9.321,0,0,1-1.922,1.894,8.077,8.077,0,0,1-4.8,1.556ZM8.994,7.4c1.531,0,2.785.014,3.948.044h.123c.52,0,.815-.086.93-.271.138-.224.011-.576-.254-1.107a5.325,5.325,0,0,0-1.956-2.2,5.387,5.387,0,0,0-2.87-.761c-.166,0-.336.006-.5.018A5.163,5.163,0,0,0,5.3,4.275,6.655,6.655,0,0,0,3.425,7.421h.109c.943,0,1.884,0,2.715-.01h.239C7.311,7.406,8.163,7.4,8.994,7.4Z" transform="translate(1.071 8.966)" fill="#fff"/>
      <path id="Exclusion_6" data-name="Exclusion 6" d="M8.87,17.963h0a8.845,8.845,0,0,1-2.314-.3,8.5,8.5,0,0,1-2.113-.89,8.71,8.71,0,0,1-1.827-1.443,9.523,9.523,0,0,1-1.457-1.962,8.975,8.975,0,0,1-1-2.742A8.909,8.909,0,0,1,.907,5.059a9.212,9.212,0,0,1,1.7-2.4A8.88,8.88,0,0,1,5.476.671,8.3,8.3,0,0,1,8.758,0a8.8,8.8,0,0,1,2.168.275,9.8,9.8,0,0,1,2.148.831c.161.084.328.165.49.243l.021.01.068.032.235.114c.7.692,1.431,1.406,2.163,2.123A5.4,5.4,0,0,1,17.633,6.1a6.039,6.039,0,0,1,.051,2.924h-.007a1.313,1.313,0,0,0-.03.422c.01.283.02.574-.318.76a2.668,2.668,0,0,1-1.665.411h-.5l-.44,0-.437,0h-.319c-.764,0-1.555.006-2.33.006-.89,0-1.647,0-2.313-.01a7.149,7.149,0,0,0-.871-.04H8.27l-.235,0-.235,0c-.67-.037-1.339-.041-1.906-.041l-.66,0H4.94c-.457,0-.735.1-.848.293s-.054.514.194.949A4.473,4.473,0,0,0,5.86,13.353,5.623,5.623,0,0,0,9.049,14.5a4.252,4.252,0,0,0,1.891-.455,6.562,6.562,0,0,0,1.794-1.369,3.2,3.2,0,0,1,2.372-1.157,4.436,4.436,0,0,1,1.815.453,1.623,1.623,0,0,1-.422,1.41,2.106,2.106,0,0,0-.462,1l-.011.011-.009.009a21.4,21.4,0,0,1-2.277,2.025,7.414,7.414,0,0,1-2.794,1.307A9.732,9.732,0,0,1,8.87,17.963Zm4.7-12.076h0l-.15.147c-.406.4-.878.858-1.343,1.306H14.25c-.076-.179-.13-.351-.182-.516l0-.01a1.844,1.844,0,0,0-.5-.927ZM8.712,3.069a5.587,5.587,0,0,0-1.8.292A5.1,5.1,0,0,0,5.365,4.2a4.957,4.957,0,0,0-1.8,3.115H9.456a9.343,9.343,0,0,0,1.489-1.5,5.671,5.671,0,0,0,.968-1.87A6.5,6.5,0,0,0,8.712,3.069Z" transform="translate(51.5 8.991)" fill="#fff"/>
      <path id="Path_48928" data-name="Path 48928" d="M67.68,40.712c.119-1.8-.245-3.973.343-6.1.841-3.043,3.3-4.676,6.976-4.624,3.444.049,5.771,1.758,6.459,4.829a14.026,14.026,0,0,1,.309,2.838c.043,2.563.034,5.129,0,7.691-.006.52.318,1.349-.232,1.511a6.055,6.055,0,0,1-2.547.024c-.492-.076-.278-.682-.281-1.052q-.028-3.7-.006-7.392a10.541,10.541,0,0,0-.37-2.985,3.84,3.84,0,0,0-7.171-.113,8.73,8.73,0,0,0-.385,2.826c.015,2.615-.046,5.229.028,7.844.034,1.214-.758,1.006-1.4.927s-1.768.6-1.731-.9c.04-1.658.009-3.318.009-5.33Z" transform="translate(-46.23 -20.732)" fill="#fff"/>
      <path id="Path_48929" data-name="Path 48929" d="M333.98,36.41c0-1.658.061-3.318-.018-4.973-.067-1.343.862-.942,1.529-.957.7-.018,1.557-.306,1.514.994-.077,2.358-.046,4.722-.009,7.083a14.343,14.343,0,0,0,.257,2.991,3.8,3.8,0,0,0,7.465-.147c.572-3.086.162-6.214.257-9.321a1.788,1.788,0,0,1,2.694-1.575c.361.171.342.746.342.746a88.935,88.935,0,0,1-.208,10.685c-.489,3.679-2.963,5.529-7.1,5.422-3.957-.1-6.346-2.144-6.63-5.823-.131-1.7-.021-3.413-.021-5.119h-.067Z" transform="translate(-231.084 -20.938)" fill="#fff"/>
      <path id="Path_48930" data-name="Path 48930" d="M297.411,35.438a9.5,9.5,0,0,1-1.679-3.807,9.821,9.821,0,0,1-.645-4.385c.1-1.187-.333-1.905-1.593-2.009-1.086-.658-.749-2.88-.576-2.922s-.208-.2,1.5-.12c.966.043,1.223-.306,1.177-1.211-.067-1.352.052-2.71-.034-4.058-.083-1.309.816-1.024,1.5-.982s1.743-.5,1.679.957c-.058,1.3.095,2.615-.015,3.908-.1,1.2.395,1.508,1.471,1.358.4-.055.82.049,1.214-.018,1.376-.239,1.709.339,1.658,1.642-.043,1.055-.327,1.346-1.382,1.336-2.933-.024-2.945.021-2.927,2.991.006.85.086,1.7.135,2.547a2.866,2.866,0,0,1,.813,2.15,2.667,2.667,0,0,0,2.168,1.44c1.9.343.627,2.358.627,2.358a.971.971,0,0,1-1.147.569,7.319,7.319,0,0,1-3.954-1.74Z" transform="translate(-202.592 -10.939)" fill="#fff"/>
      <path id="Path_48931" data-name="Path 48931" d="M124.955,43.679c1.284-3.407,2.45-6.5,3.615-9.587a3.517,3.517,0,0,1,4.061-2.358q-2.771,6.867-5.517,13.679c-.187.465-.388.927-.554,1.4-.294.835-.593,1.443-1.761,1.419-1.107-.021-1.309-.612-1.606-1.385-1.917-5-3.866-9.994-5.893-15.224a19.584,19.584,0,0,0,2.052-.012c.908-.1,1.333.232,1.636,1.1,1.232,3.551,2.551,7.071,3.97,10.964Z" transform="translate(-80.684 -21.846)" fill="#fff"/>
      <path id="Path_48932" data-name="Path 48932" d="M392.148,41.475a35.252,35.252,0,0,1,.263-6.009,5.965,5.965,0,0,1,5.676-4.966c.547-.015,1,.7,1,.7s.8,1.71-.444,2.165c-2.661.979-3.367,1.862-3.434,4.743-.064,2.706-.095,5.419.006,8.123.046,1.214-.52,1.284-1.437,1.208-.8-.064-1.771.309-1.648-1.165.122-1.5.028-3.006.028-4.8Z" transform="translate(-271.456 -21.085)" fill="#fff"/>
      <path id="Path_48933" data-name="Path 48933" d="M313.294,61.038a3.352,3.352,0,0,1-.814-2.15c.725-.606,1.443-1.22,2.18-1.814.355-.284.745-.52,1.879-1.254a4.7,4.7,0,0,1-.827,2.193,18.381,18.381,0,0,1-2.416,3.021Z" transform="translate(-216.174 -39.162)" fill="gray"/>
      <path id="Path_48941" data-name="Path 48941" d="M196.89,45.41a19.467,19.467,0,0,1,2.456-3.37,6.387,6.387,0,0,1,1.661,1.939l-1.492,1.453s-1.746-.015-2.621-.021Z" transform="translate(-135.934 -29.1)" fill="gray"/>
      <path id="Path_48942" data-name="Path 48942" d="M186.144,65.668a19.137,19.137,0,0,1,1.861-2.9s1.274.08,1.788.08a23.613,23.613,0,0,1-3.651,2.822Z" transform="translate(-128.561 -43.237)" fill="gray"/>
    </g>
  </g>
</svg>
