<svg xmlns="http://www.w3.org/2000/svg" width="150" height="150" viewBox="0 0 150 150">
  <g id="Group_46788" data-name="Group 46788" transform="translate(-885 -7799)">
    <rect id="Rectangle_7341" data-name="Rectangle 7341" width="150" height="150" rx="40" transform="translate(885 7799)" fill="#ffe02b"/>
    <g id="cylinder.split.1x2.fill" transform="translate(927.329 7833.978)">
      <path id="Path_88946" data-name="Path 88946" d="M0,46.727v-6.61c8.016,6.8,18.577,9.991,32.671,9.991s24.655-3.191,32.671-9.991v6.61c-8.471,6.23-18.995,9.117-32.671,9.117S8.472,52.957,0,46.727ZM0,62.151C0,72.636,13.182,80.044,32.671,80.044s32.671-7.408,32.671-17.893V16.184C65.342,6.61,52.274,0,32.671,0S0,6.61,0,16.184ZM6.116,16.184C6.116,9.8,16.753,5.357,32.671,5.357S59.226,9.8,59.226,16.184c0,6.116-10.713,10.409-26.555,10.409S6.116,22.3,6.116,16.184Z" fill="#655700"/>
    </g>
  </g>
</svg>
