<svg xmlns="http://www.w3.org/2000/svg"  viewBox="0 0 64 64" width="50px" height="50px"><linearGradient id="tiSU_lFbfX0l1SGhupVVDa" x1="32" x2="32" y1="-310.667" y2="-361.872" gradientTransform="matrix(1 0 0 -1 0 -304)" gradientUnits="userSpaceOnUse"><stop offset="0" stop-color="#1a6dff"/><stop offset="1" stop-color="#c822ff"/></linearGradient><path fill="url(#tiSU_lFbfX0l1SGhupVVDa)" d="M44,57H20c-7.168,0-13-5.832-13-13V20c0-7.168,5.832-13,13-13h24c7.168,0,13,5.832,13,13v24	C57,51.168,51.168,57,44,57z M20,9C13.935,9,9,13.935,9,20v24c0,6.065,4.935,11,11,11h24c6.065,0,11-4.935,11-11V20	c0-6.065-4.935-11-11-11H20z"/><linearGradient id="tiSU_lFbfX0l1SGhupVVDb" x1="32.127" x2="32.127" y1="-327" y2="-338.173" gradientTransform="matrix(1 0 0 -1 0 -304)" gradientUnits="userSpaceOnUse"><stop offset="0" stop-color="#6dc7ff"/><stop offset="1" stop-color="#e6abff"/></linearGradient><path fill="url(#tiSU_lFbfX0l1SGhupVVDb)" d="M37.023,26.316	c0.192-0.115,0.392-0.238,0.6-0.346c0.538-0.276,1.138-0.415,1.746-0.385c0.439,0.024,0.838,0.147,1.146,0.469	c0.292,0.3,0.4,0.669,0.431,1.069c0.008,0.085,0.008,0.169,0.008,0.262v3.983c0,0.346-0.046,0.392-0.392,0.392h-0.938	c-0.062,0-0.123,0-0.185-0.008c-0.092-0.008-0.169-0.085-0.185-0.177c-0.016-0.085-0.016-0.169-0.016-0.254V27.76	c0.008-0.147-0.008-0.284-0.046-0.423c-0.062-0.238-0.276-0.407-0.523-0.423c-0.453-0.03-0.908,0.062-1.323,0.254	c-0.062,0.016-0.1,0.077-0.092,0.139v4.044c0,0.077,0,0.147-0.016,0.223c0,0.107-0.085,0.185-0.192,0.185l0,0	c-0.115,0.008-0.231,0.008-0.354,0.008h-0.815c-0.284,0-0.346-0.069-0.346-0.354v-3.637c0-0.131-0.008-0.27-0.038-0.4	c-0.054-0.262-0.276-0.447-0.538-0.461c-0.461-0.03-0.93,0.062-1.346,0.262c-0.062,0.016-0.1,0.085-0.085,0.147v4.099	c0,0.284-0.062,0.346-0.346,0.346h-1.031c-0.27,0-0.338-0.077-0.338-0.338v-5.337c0-0.062,0.008-0.123,0.024-0.185	c0.03-0.092,0.123-0.147,0.215-0.147h0.961c0.139,0,0.223,0.085,0.27,0.215c0.038,0.107,0.062,0.208,0.1,0.323	c0.077,0,0.123-0.054,0.177-0.085c0.423-0.262,0.868-0.485,1.369-0.576c0.385-0.077,0.769-0.077,1.154,0	c0.361,0.077,0.685,0.292,0.892,0.6c0.016,0.024,0.03,0.038,0.046,0.054C37.007,26.301,37.015,26.301,37.023,26.316z M25.657,26.608	c0.054-0.016,0.1-0.046,0.131-0.092c0.139-0.139,0.284-0.27,0.439-0.392c0.4-0.308,0.9-0.461,1.4-0.423	c0.2,0.008,0.27,0.069,0.284,0.262c0.016,0.262,0.008,0.53,0.008,0.792c0.008,0.107,0,0.208-0.016,0.316	c-0.03,0.139-0.085,0.192-0.223,0.208c-0.107,0.008-0.208,0-0.316-0.008c-0.515-0.046-1.015,0.054-1.5,0.215	c-0.107,0.038-0.107,0.115-0.107,0.2v3.691c0,0.069,0,0.131-0.008,0.2c-0.008,0.1-0.085,0.177-0.185,0.177	c-0.054,0.008-0.115,0.008-0.169,0.008h-1c-0.054,0-0.115,0-0.169-0.008c-0.1-0.008-0.177-0.092-0.185-0.192	c-0.008-0.062-0.008-0.123-0.008-0.185v-5.23c0-0.354,0.038-0.392,0.392-0.392h0.739c0.2,0,0.292,0.069,0.346,0.262	C25.566,26.209,25.611,26.401,25.657,26.608z M28.656,28.746v-2.729c0.008-0.185,0.077-0.254,0.262-0.262c0.4-0.008,0.8-0.008,1.2,0	c0.177,0,0.231,0.054,0.246,0.231c0.008,0.069,0.008,0.131,0.008,0.2v5.121c0,0.085-0.008,0.169-0.016,0.254	c-0.008,0.1-0.085,0.169-0.185,0.177c-0.046,0.008-0.085,0.008-0.131,0.008h-1.069c-0.038,0-0.069,0-0.107-0.008	c-0.107-0.008-0.2-0.092-0.208-0.2c-0.008-0.062-0.008-0.123-0.008-0.185C28.656,30.499,28.656,29.623,28.656,28.746z M29.548,23.002c0.123-0.008,0.246,0.016,0.361,0.054c0.415,0.139,0.63,0.5,0.592,0.969c-0.03,0.4-0.33,0.723-0.731,0.784	c-0.169,0.03-0.346,0.03-0.515,0c-0.439-0.085-0.761-0.407-0.731-0.961C28.571,23.301,28.933,23.002,29.548,23.002z M22.897,28.116	c-0.03-0.4-0.139-0.792-0.3-1.154c-0.316-0.661-0.8-1.146-1.538-1.315c-0.846-0.185-1.607,0-2.3,0.515	c-0.046,0.046-0.1,0.085-0.161,0.115c-0.016-0.008-0.03-0.016-0.03-0.024c-0.024-0.077-0.038-0.153-0.062-0.231	c-0.062-0.192-0.139-0.262-0.346-0.262c-0.231,0-0.469,0.008-0.699,0c-0.177-0.008-0.338,0.016-0.461,0.153	c0,2.691,0,5.391,0.008,8.074c0.1,0.161,0.254,0.192,0.431,0.185c0.276-0.008,0.554,0,0.83,0c0.485,0,0.485,0,0.485-0.477v-2.191	c0-0.054-0.024-0.115,0.03-0.161c0.385,0.3,0.854,0.485,1.338,0.53c0.677,0.069,1.291-0.1,1.807-0.562	c0.377-0.346,0.654-0.792,0.8-1.285C22.936,29.4,22.95,28.761,22.897,28.116z M21.059,29.707c-0.054,0.238-0.177,0.453-0.354,0.616	c-0.2,0.169-0.447,0.27-0.707,0.27c-0.392,0.024-0.777-0.062-1.122-0.246c-0.085-0.038-0.139-0.123-0.131-0.215V28.74	c0-0.461,0.008-0.923,0-1.384c-0.008-0.107,0.054-0.2,0.153-0.238c0.423-0.2,0.862-0.292,1.323-0.2	c0.323,0.046,0.6,0.254,0.731,0.554c0.115,0.246,0.185,0.515,0.2,0.784C21.198,28.746,21.198,29.238,21.059,29.707z M43.76,29.246	c0.576,0.107,1.168,0.115,1.746,0.024c0.338-0.046,0.661-0.147,0.961-0.308c0.346-0.2,0.6-0.477,0.707-0.862	c0.27-0.969-0.147-1.946-1.154-2.306c-0.492-0.161-1.015-0.215-1.53-0.147c-1.215,0.139-2.007,0.808-2.368,1.968	c-0.254,0.792-0.223,1.599-0.016,2.399c0.27,1.023,0.946,1.631,1.968,1.845c0.584,0.131,1.176,0.107,1.761,0.016	c0.308-0.054,0.616-0.131,0.908-0.246c0.177-0.069,0.27-0.177,0.262-0.377c-0.008-0.185,0-0.377,0-0.569	c0-0.231-0.092-0.3-0.316-0.246c-0.224,0.054-0.439,0.1-0.661,0.147c-0.477,0.1-0.969,0.1-1.446,0.016	c-0.654-0.131-1.077-0.692-1.039-1.384C43.613,29.224,43.69,29.23,43.76,29.246z M43.567,28.07c0.024-0.185,0.077-0.361,0.147-0.53	c0.231-0.562,0.715-0.753,1.208-0.723c0.139,0.008,0.276,0.038,0.407,0.092c0.2,0.085,0.33,0.27,0.354,0.485	c0.024,0.131,0.016,0.27-0.023,0.4c-0.092,0.276-0.316,0.392-0.584,0.447c-0.161,0.038-0.33,0.054-0.5,0.038	c-0.3,0-0.608-0.024-0.908-0.069C43.552,28.193,43.552,28.193,43.567,28.07z"/><linearGradient id="tiSU_lFbfX0l1SGhupVVDc" x1="32" x2="32" y1="-340" y2="-347" gradientTransform="matrix(1 0 0 -1 0 -304)" gradientUnits="userSpaceOnUse"><stop offset="0" stop-color="#6dc7ff"/><stop offset="1" stop-color="#e6abff"/></linearGradient><path fill="url(#tiSU_lFbfX0l1SGhupVVDc)" d="M32.468,43	c-0.289-0.007-0.578-0.007-0.867,0c-0.397-0.022-0.794-0.036-1.193-0.065c-1.055-0.079-2.103-0.237-3.129-0.474	c-3.548-0.818-6.663-2.462-9.381-4.853c-0.254-0.223-0.491-0.452-0.738-0.682c-0.058-0.05-0.109-0.122-0.138-0.194	c-0.043-0.101-0.022-0.209,0.051-0.287c0.072-0.078,0.188-0.108,0.289-0.065c0.065,0.029,0.13,0.058,0.188,0.094	c2.595,1.594,5.427,2.758,8.398,3.446c0.997,0.23,2.002,0.409,3.013,0.539c1.452,0.18,2.919,0.245,4.379,0.194	c0.787-0.022,1.568-0.094,2.348-0.194c1.821-0.23,3.621-0.639,5.363-1.214c0.918-0.301,1.813-0.647,2.689-1.048	c0.13-0.072,0.289-0.094,0.433-0.058c0.239,0.058,0.383,0.301,0.325,0.539c-0.007,0.029-0.022,0.065-0.036,0.094	c-0.058,0.108-0.138,0.202-0.239,0.272c-0.831,0.647-1.728,1.214-2.674,1.688c-1.786,0.897-3.693,1.536-5.659,1.902	C34.759,42.834,33.617,42.957,32.468,43z M44.891,36c0.477,0.014,0.947,0.043,1.409,0.166c0.13,0.036,0.254,0.079,0.375,0.137	c0.167,0.065,0.274,0.223,0.296,0.395c0.029,0.202,0.036,0.409,0.022,0.618c-0.094,1.228-0.477,2.412-1.113,3.468	c-0.232,0.38-0.513,0.726-0.838,1.027c-0.065,0.065-0.145,0.115-0.232,0.144c-0.138,0.036-0.225-0.036-0.232-0.173	c0.007-0.072,0.022-0.144,0.051-0.216c0.254-0.675,0.499-1.342,0.694-2.039c0.116-0.38,0.196-0.768,0.246-1.163	c0.014-0.144,0.022-0.287,0.007-0.431c-0.007-0.245-0.167-0.452-0.404-0.524c-0.225-0.072-0.455-0.115-0.694-0.13	c-0.665-0.029-1.329,0-1.987,0.086l-0.874,0.108c-0.094,0.007-0.181,0-0.232-0.086s-0.029-0.173,0.022-0.258	c0.058-0.079,0.13-0.151,0.217-0.202c0.535-0.38,1.135-0.611,1.771-0.762C43.886,36.064,44.385,36.014,44.891,36z"/></svg>